<?xml version="1.0" standalone="no"?>
<!DOCTYPE svg PUBLIC "-//W3C//DTD SVG 1.1//EN" "http://www.w3.org/Graphics/SVG/1.1/DTD/svg11.dtd" >
<svg xmlns="http://www.w3.org/2000/svg" xmlns:xlink="http://www.w3.org/1999/xlink" version="1.1">
<metadata>
Created by FontForge 20200427 at Tue Jan 27 13:49:43 2009
 By www
1.2, Copyright Copr. Castcraft Software, Inc. 1990-1991.
</metadata>
<defs>
<font id="OPTIAlpine-EightySeven" horiz-adv-x="608" >
  <font-face 
    font-family="OPTIAlpine-EightySeven"
    font-weight="500"
    font-stretch="normal"
    units-per-em="1000"
    panose-1="0 0 0 0 0 0 0 0 0 0"
    ascent="800"
    descent="-200"
    x-height="597"
    cap-height="795"
    bbox="-130 -247.4 1227.27 1213.09"
    underline-thickness="76"
    underline-position="-177"
    unicode-range="U+0020-FB02"
  />
<missing-glyph horiz-adv-x="280" 
 />
    <glyph glyph-name=".notdef" horiz-adv-x="280" 
 />
    <glyph glyph-name=".null" horiz-adv-x="0" 
 />
    <glyph glyph-name="nonmarkingreturn" horiz-adv-x="333" 
 />
    <glyph glyph-name="space" unicode=" " horiz-adv-x="187" 
d="M1967 0z" />
    <glyph glyph-name="exclam" unicode="!" horiz-adv-x="256" 
d="M51 161h175v-161h-175v161zM229 789v-224l-24 -341h-133l-24 341v224h181z" />
    <glyph glyph-name="quotedbl" unicode="&#x22;" horiz-adv-x="285" 
d="M222 483h-21l-24 183q-1 10 -3 24t-3 22t-2 19t-1 17.5v14.5t1.5 13t3.5 10.5t6 9.5t9 7q21 13 45 -1q18 -10 18.5 -46.5t-7.5 -86.5zM102 483h-20l-24 183q-1 9 -3 23.5t-3 22t-2.5 19t-1.5 17.5v14.5t1.5 13.5t4 10.5t6.5 9.5t9 7q21 13 45 -1q18 -10 18.5 -46.5
t-7.5 -86.5z" />
    <glyph glyph-name="numbersign" unicode="#" horiz-adv-x="830" 
d="M396 749h86l-82 -232h142l81 232h86l-82 -232h162l-23 -67h-162l-54 -147h162l-24 -68h-162l-84 -235h-86l84 235h-141l-84 -235h-86l84 235h-159l24 68h159l54 147h-162l25 67h160zM323 303h141l54 147h-143z" />
    <glyph glyph-name="dollar" unicode="$" horiz-adv-x="614" 
d="M266 885h86v-78q115 0 161.5 -58t46.5 -178h-178q0 43 -8.5 68t-36.5 37q-11 6 -33 4t-38 -14q-18 -14 -25.5 -38t-0.5 -46q7 -28 26 -48t38 -30t57 -26l30 -13q35 -14 51.5 -21.5t41.5 -21.5t37.5 -26.5t26.5 -31.5t21 -43.5t10 -55.5q5 -58 -12.5 -127t-72.5 -109
q-22 -16 -45 -25t-39 -12.5t-58 -9.5v-101h-86v100q-56 0 -92.5 9.5t-66.5 36.5t-43.5 79.5t-13.5 133.5h177q0 -59 18.5 -92.5t70.5 -33.5q40 0 56.5 33.5t16.5 67.5q0 69 -124 110l-24 9q-97 41 -137 82t-49 123q-18 159 92 228q46 31 119 40v78z" />
    <glyph glyph-name="percent" unicode="%" horiz-adv-x="892" 
d="M569 801h112l-344 -818h-113zM179 506q6 -38 26 -48q17 -7 35 9q15 14 17.5 80.5t-4.5 113.5q-4 40 -29 43q-22 2 -33 -13q-13 -15 -16 -60.5t-0.5 -82.5t4.5 -42zM652 127q7 -38 27 -47q17 -7 34 9q15 14 18 80.5t-4 113.5q-4 40 -29 42q-21 4 -33 -12
q-12 -15 -15.5 -61.5t-1.5 -80.5t4 -44zM615 406q21 8 54 11.5t73 -4t63 -29.5q32 -31 45 -88t11 -100t-9 -81q-19 -92 -93 -115q-26 -9 -57.5 -11.5t-71.5 8t-64 39.5q-27 32 -37 87t-7.5 99.5t10.5 80.5q6 30 27.5 59.5t55.5 43.5zM140 783q21 8 54 11t73 -4.5t63 -29.5
q32 -31 45 -87.5t11 -99.5t-9 -81q-19 -92 -93 -115q-26 -9 -57.5 -12t-71.5 8t-64 40q-27 32 -37 87t-7.5 99t10.5 81q6 30 27.5 59.5t55.5 43.5z" />
    <glyph glyph-name="ampersand" unicode="&#x26;" horiz-adv-x="733" 
d="M417 420l98 -137q23 42 29 101h160q-5 -46 -10.5 -75.5t-25.5 -77t-54 -87.5l102 -144h-194l-36 51q-43 -29 -96.5 -46.5t-111 -19.5t-106.5 21q-112 51 -126 175q-10 76 26 135.5t129 126.5q-99 130 -68 236q24 79 116 106q44 17 120.5 10t120.5 -40q64 -46 64 -129
q0 -64 -30.5 -108.5t-106.5 -97.5zM398 612q15 45 -7 71q-19 20 -61 16q-36 -2 -50 -37q-3 -8 -4 -15.5t2 -17t5.5 -16t10 -18.5t11.5 -17.5t14.5 -21t14.5 -20.5q7 7 19.5 19t16.5 16.5t11 12.5t10.5 14t6.5 14zM223 219q1 -28 17 -51.5t41 -35.5q54 -26 125 31l-117 165
q-38 -32 -52.5 -56.5t-13.5 -52.5z" />
    <glyph glyph-name="quotesingle" unicode="'" horiz-adv-x="255" 
d="M50 791h173v-103v-43v-40.5t-0.5 -34t-2.5 -32.5t-5.5 -27t-8.5 -25.5t-12.5 -20t-18 -19.5t-24.5 -15q-36 -19 -98 -29v88q44 8 56 39q6 15 6 67h-65v195z" />
    <glyph glyph-name="parenleft" unicode="(" horiz-adv-x="378" 
d="M339 796q-67 -121 -97 -265.5t-23 -283t47 -261.5q21 -66 76 -181h-144q-129 202 -147 424t71 425q28 67 77 148h143z" />
    <glyph glyph-name="parenright" unicode=")" horiz-adv-x="378" 
d="M47 802h143q51 -83 77 -148q90 -203 71.5 -425t-147.5 -424h-144q55 115 76 181q40 123 47 261.5t-23 283t-97 265.5z" />
    <glyph glyph-name="asterisk" unicode="*" horiz-adv-x="510" 
d="M206 795h101v-148l132 46l33 -92l-134 -44l87 -119l-80 -61l-87 120l-86 -119l-82 60l87 119l-137 44l31 96l135 -50v148z" />
    <glyph glyph-name="plus" unicode="+" horiz-adv-x="747" 
d="M319 670h126v-272h267v-128h-267v-270h-126v270h-271v128h271v272z" />
    <glyph glyph-name="comma" unicode="," horiz-adv-x="255" 
d="M50 195h173v-102v-43v-40.5t-0.5 -34.5t-2.5 -32.5t-5.5 -26.5t-8.5 -26t-12.5 -20.5t-18 -19.5t-24.5 -15q-41 -20 -98 -29v89q45 8 56 39q6 15 6 66h-65v195z" />
    <glyph glyph-name="hyphen" unicode="-" horiz-adv-x="436" 
d="M48 393h352v-140h-352v140z" />
    <glyph glyph-name="period" unicode="." horiz-adv-x="289" 
d="M48 102q0 43 30 73t73 30t73.5 -30t30.5 -73q0 -42 -30.5 -72t-73.5 -30t-73 30t-30 72z" />
    <glyph glyph-name="slash" unicode="/" horiz-adv-x="562" 
d="M443 787h86l-395 -795h-86z" />
    <glyph glyph-name="zero" unicode="0" horiz-adv-x="607" 
d="M310 788q48 0 85.5 -6.5t64.5 -18.5t46 -30t30.5 -41.5t18.5 -51.5t9.5 -61.5t3.5 -71.5t0 -80v-45v-55q1 -39 0.5 -74.5t-3 -67t-9.5 -58.5t-18.5 -49.5t-30.5 -40t-46 -29t-65 -17.5t-86 -6q-79 0 -131 21t-77 58.5t-37.5 88t-11.5 111t0 127.5q1 170 12 228
q22 110 107 147q54 22 138 22zM241 385q0 -181 6 -217q10 -59 47 -67q8 -1 16 -1q26 0 40.5 11t21 49.5t7.5 70.5t1 113v41q0 176 -4 207q-8 68 -47 78q-9 2 -20 2q-48 0 -58.5 -47.5t-9.5 -187.5v-52z" />
    <glyph glyph-name="one" unicode="1" horiz-adv-x="607" 
d="M295 789h132v-789h-183v550h-154v116q120 0 172 51q24 26 33 72z" />
    <glyph glyph-name="two" unicode="2" horiz-adv-x="607" 
d="M281 140h272v-140h-500q0 93 32.5 169.5t120.5 167.5l45 44q55 55 78.5 91t27 57.5t3.5 72.5q0 29 -14.5 52t-44.5 23q-40 0 -56 -32.5t-16 -115.5h-174q0 30 0.5 47t5 47t13.5 50.5t27 44t44 40.5q49 31 145 33.5t148 -21.5q91 -41 108 -143q16 -94 -16 -160.5
t-141 -183.5q-43 -42 -80 -95z" />
    <glyph glyph-name="three" unicode="3" horiz-adv-x="607" 
d="M436 413q57 -19 84 -48t37 -84q9 -59 -5 -131t-66 -114q-37 -30 -99.5 -42t-117 -7.5t-89.5 17.5q-59 23 -86 64t-33 108l-3 57h176q0 -99 42 -122q27 -17 61 0q28 14 36 70q7 118 -30 147q-34 26 -112 18v117q91 -13 118 37q10 18 11.5 64.5t-10.5 72.5q-5 10 -9.5 16.5
t-15.5 11.5t-26 5q-37 0 -51 -28.5t-14 -84.5h-169q3 40 6 60.5t13 52.5t31 54.5t54 40.5q47 25 141 24t143 -29q80 -44 89 -163q3 -69 -17 -109.5t-89 -74.5z" />
    <glyph glyph-name="four" unicode="4" horiz-adv-x="607" 
d="M50 302l249 478h202v-486h72v-139h-72v-155h-176v155h-275v147zM190 294h135v260z" />
    <glyph glyph-name="five" unicode="5" horiz-adv-x="607" 
d="M87 780h438l-6 -141h-293l-7 -160q81 79 187 56q92 -18 127 -103q28 -60 25 -172.5t-40 -173.5q-33 -55 -75 -74.5t-108 -23.5q-62 -6 -127 9t-104 61q-27 33 -35.5 72t-8.5 101h175q0 -37 1.5 -53.5t10 -36t26.5 -29.5q25 -16 54 -1q17 7 26.5 27.5t11.5 36t3 42.5
q10 154 -33 185q-27 17 -58 7q-30 -11 -42 -64h-167z" />
    <glyph glyph-name="six" unicode="6" horiz-adv-x="607" 
d="M553 590h-178q-7 69 -40 83q-10 6 -32.5 4t-33.5 -14q-6 -6 -10 -12t-7.5 -14.5t-5.5 -14.5t-3 -18.5t-2 -20.5t-1 -25v-28v-34.5v-38.5q94 92 213 53q97 -32 113 -161q5 -29 7 -64.5t-0.5 -88.5t-22.5 -99.5t-57 -71.5q-34 -24 -70.5 -33t-102.5 -9q-89 0 -150 29
q-69 36 -97 117q-18 56 -18 212v76q0 142 14 208q18 78 65 116q63 51 189 51q94 0 140 -27q90 -53 90 -175zM251 234q0 -130 68 -130q34 0 48 30t14 101v34q0 58 -14 87t-48 29q-68 0 -68 -119v-32z" />
    <glyph glyph-name="seven" unicode="7" horiz-adv-x="607" 
d="M60 780h500v-139q-9 -15 -18 -32l-39 -70q-60 -117 -101 -265t-49 -274h-194q30 336 218 622h-317v158z" />
    <glyph glyph-name="eight" unicode="8" horiz-adv-x="607" 
d="M442 425q97 -21 119 -138q10 -56 -3.5 -127t-53.5 -112q-30 -30 -89 -46t-108 -15t-84 5q-112 20 -152 116q-20 45 -20.5 118.5t31.5 132.5q31 48 84 66q-103 56 -101 165q2 131 100 179q52 27 149.5 25.5t148.5 -36.5q90 -61 79 -194q-10 -99 -100 -139zM307 475
q57 0 57 98v23q0 29 -13.5 53t-41.5 24q-30 0 -45 -24.5t-15 -51.5v-25q0 -97 58 -97zM248 144q19 -35 57 -39q35 -2 56 29q16 24 18 87.5t-6 84.5q-7 24 -17.5 35t-32.5 18q-31 8 -57 -13q-21 -15 -29 -57t-4 -83.5t15 -61.5z" />
    <glyph glyph-name="nine" unicode="9" horiz-adv-x="607" 
d="M71 186h177q7 -69 40 -84q10 -6 32.5 -4t34.5 14q5 5 9 11.5t7 11.5t5 14t3.5 15t2.5 18t1.5 19.5t0.5 24.5v26.5v31.5v35q-50 -49 -111 -60.5t-103 7.5q-97 32 -113 161q-5 29 -7 64.5t0.5 88t22.5 99.5t57 72q34 23 71 32t102 9q90 0 150 -29q69 -34 97 -116
q18 -56 18 -212v-76q0 -142 -14 -208q-17 -77 -65 -116q-62 -52 -188 -52q-93 0 -140 28q-90 51 -90 175zM373 542q0 130 -68 130q-34 0 -48.5 -30t-14.5 -102v-33q0 -59 14.5 -87.5t48.5 -28.5q68 0 68 119v32z" />
    <glyph glyph-name="colon" unicode=":" horiz-adv-x="289" 
d="M48 407q0 43 30 73t73 30t73.5 -30t30.5 -73t-30.5 -72.5t-73.5 -29.5t-73 29.5t-30 72.5zM48 102q0 43 30 73t73 30t73.5 -30t30.5 -73q0 -42 -30.5 -72t-73.5 -30t-73 30t-30 72z" />
    <glyph glyph-name="semicolon" unicode=";" horiz-adv-x="289" 
d="M48 435q0 43 30 72.5t73 29.5t73.5 -29.5t30.5 -72.5t-30.5 -73t-73.5 -30t-73 30t-30 73zM50 195h173v-102v-43v-40.5t-0.5 -34.5t-2.5 -32.5t-5.5 -26.5t-8.5 -26t-12.5 -20.5t-18 -19.5t-24.5 -15q-41 -20 -98 -29v89q45 8 56 39q6 15 6 66h-65v195z" />
    <glyph glyph-name="less" unicode="&#x3c;" horiz-adv-x="568" 
d="M48 398l482 178v-108l-368 -130l368 -130v-110l-482 180v120z" />
    <glyph glyph-name="equal" unicode="=" horiz-adv-x="880" 
d="M852 546v-128h-804v128h804zM852 249v-127h-804v127h804z" />
    <glyph glyph-name="greater" unicode="&#x3e;" horiz-adv-x="568" 
d="M530 278l-482 -180v110l369 130l-369 130v108l482 -178v-120z" />
    <glyph glyph-name="question" unicode="?" horiz-adv-x="553" 
d="M193 0v162h175v-162h-175zM360 224h-163v18q0 54 3 77t17 56q8 18 52.5 69.5t58.5 80.5q20 40 14 105q-2 26 -18 38.5t-33 12.5q-35 0 -55 -30t-20 -112h-163q0 162 84 220q48 33 129 38.5t126 -14.5q54 -22 83 -55.5t40 -84.5q15 -69 -8.5 -133t-85.5 -137
q-41 -48 -50.5 -74.5t-10.5 -74.5z" />
    <glyph glyph-name="at" unicode="@" horiz-adv-x="993" 
d="M590 166q-62 -99 -161 -97q-37 0 -74 18.5t-60 56.5q-28 55 -23 119t35 122q32 64 86.5 104t110.5 43q102 6 137 -79l20 61h124l-65 -230q-1 -2 -4.5 -13.5t-5.5 -19.5t-5.5 -21.5t-5 -24t-2 -22t1.5 -20t7 -13.5q16 -16 53 -10q71 13 115 119q19 45 24.5 95t-6.5 103.5
t-43 96.5q-51 72 -142.5 101t-167.5 26q-232 -14 -344 -216q-45 -83 -47.5 -194t40.5 -193q49 -89 134.5 -133t177.5 -49q175 -11 348 98l25 -42q-142 -90 -304.5 -109t-281.5 41q-75 37 -127.5 96t-76.5 121.5t-30 132.5q-9 112 35.5 221.5t156.5 188.5q68 49 161.5 72
t184.5 18t162 -36q96 -42 141 -103.5t58 -159.5q11 -72 -16.5 -168.5t-94.5 -148.5q-41 -31 -91.5 -42.5t-91.5 3.5q-32 11 -47.5 31t-20.5 56zM403 204q0 -42 33 -64q25 -15 61 0q31 15 58 68.5t39 98.5t15 74q6 53 -22 72q-11 10 -33 12.5t-33 -2.5q-46 -16 -81.5 -114.5
t-36.5 -144.5z" />
    <glyph glyph-name="A" unicode="A" horiz-adv-x="668" 
d="M220 795h237l197 -795h-189l-40 145h-177l-37 -145h-189zM270 295h128l-64 349z" />
    <glyph glyph-name="B" unicode="B" horiz-adv-x="596" 
d="M48 795h229h35h38t33 -1.5t35.5 -5t30 -9.5t31.5 -14.5t25 -21.5t25 -30q26 -40 30.5 -99.5t-13.5 -103.5q-22 -56 -101 -90q37 -13 56.5 -23t40.5 -33.5t32 -60.5q16 -40 8.5 -108t-40.5 -115q-17 -23 -39 -39.5t-40.5 -24t-45.5 -11.5t-39 -4.5t-35 -0.5h-10h-286v795z
M237 476h41q100 0 100 95q0 51 -27 69.5t-78 18.5h-36v-183zM237 132h58q44 0 70.5 32.5t26.5 84.5q0 51 -28.5 77t-76.5 26h-50v-220z" />
    <glyph glyph-name="C" unicode="C" horiz-adv-x="582" 
d="M560 521h-179q0 137 -44 159q-28 14 -63 0q-17 -8 -27 -25.5t-13.5 -54t-4 -52t-0.5 -65.5v-184q0 -53 1.5 -80t11 -58.5t29.5 -44.5q36 -21 74 4q20 14 30.5 50.5t12 64.5t1.5 78h180q0 -47 -1 -72.5t-6.5 -65.5t-17 -64.5t-33.5 -50.5t-54 -43q-54 -29 -142.5 -33
t-152.5 30q-53 33 -76.5 71.5t-38.5 107.5q-15 65 -15 156v43q0 169 22 249q28 106 107 142q61 27 144 27q104 0 155 -29q29 -17 49 -41t30 -44.5t15 -54t5.5 -52t0.5 -54.5v-14z" />
    <glyph glyph-name="D" unicode="D" horiz-adv-x="605" 
d="M48 795h237h27.5h29.5t27.5 -1t30.5 -3.5l28 -7t30 -11t27 -16t29 -22.5q33 -31 49.5 -86.5t18.5 -93t2 -103.5v-16v-83q0 -49 -1.5 -79.5t-7.5 -80t-22 -84.5t-41 -54q-46 -36 -94.5 -45t-154.5 -9h-215v795zM237 139h10h32t27 1t24 3t18.5 6t15.5 10t11.5 15t9.5 20.5
t5 27.5t4 35.5t1 44.5v213q0 27 -1.5 47t-6.5 35.5t-9.5 26t-16.5 17.5t-20 10.5t-28 5t-33.5 2t-42.5 0.5v-520z" />
    <glyph glyph-name="E" unicode="E" horiz-adv-x="536" 
d="M48 795h458v-151h-269v-161h252v-149h-252v-183h281v-151h-470v795z" />
    <glyph glyph-name="F" unicode="F" horiz-adv-x="518" 
d="M48 795h455v-151h-266v-162h248v-148h-248v-334h-189v795z" />
    <glyph glyph-name="G" unicode="G" horiz-adv-x="587" 
d="M555 548h-178q0 108 -43 132q-10 7 -33.5 6.5t-38.5 -11.5q-6 -5 -11 -11t-9 -14t-6.5 -14.5t-4.5 -18t-3 -18t-1.5 -20t-1 -19.5t-1 -21.5t-0.5 -20.5v-219v-18v-22.5t0.5 -23t1.5 -25.5t3 -23.5t5.5 -23.5t8 -19t10.5 -17t14 -11q42 -19 78 4q25 16 32.5 50t11.5 129
h-86v125h262v-424h-134v69q-31 -43 -79 -65t-89.5 -20.5t-76.5 10.5q-85 30 -119.5 99.5t-34.5 180.5v150q0 132 17 198q28 114 106 159q55 31 155.5 29.5t149.5 -32.5q59 -35 78 -91.5t17 -138.5z" />
    <glyph glyph-name="H" unicode="H" horiz-adv-x="604" 
d="M48 795h189v-303h145v303h189v-795h-189v337h-145v-337h-189v795z" />
    <glyph glyph-name="I" unicode="I" horiz-adv-x="270" 
d="M48 795h189v-795h-189v795z" />
    <glyph glyph-name="J" unicode="J" horiz-adv-x="544" 
d="M320 795h188v-506q0 -2 0.5 -31.5t0 -37.5t-2.5 -35.5t-6 -40t-12 -36t-19 -37.5t-28 -31t-39 -30q-45 -26 -137.5 -26t-139.5 27q-27 16 -45.5 37t-28 39t-14 48t-5 47t-0.5 53v16h173q0 -31 0.5 -45t2 -34t5 -28t9.5 -17.5t16 -12.5t24 -3q17 0 28.5 8t17 18t8.5 30.5
t3.5 34t0.5 40.5v10v543z" />
    <glyph glyph-name="K" unicode="K" horiz-adv-x="632" 
d="M48 795h189v-301l170 301h201l-204 -342l233 -453h-209l-143 296l-48 -72v-224h-189v795z" />
    <glyph glyph-name="L" unicode="L" horiz-adv-x="524" 
d="M48 795h189v-643h273v-152h-462v795z" />
    <glyph glyph-name="M" unicode="M" horiz-adv-x="850" 
d="M48 795h290l100 -518l97 518h282v-795h-188v596l-123 -596h-143l-126 591v-591h-189v795z" />
    <glyph glyph-name="N" unicode="N" horiz-adv-x="655" 
d="M48 795h230l160 -514v514h188v-795h-227l-162 526v-526h-189v795z" />
    <glyph glyph-name="O" unicode="O" 
d="M307 810q75 0 125 -15.5t81.5 -44.5t48.5 -82.5t22.5 -115.5t5.5 -159q0 -61 -2 -103t-8.5 -88.5t-18.5 -77t-33 -59.5t-51 -45.5t-73 -26.5t-98 -10q-69 0 -118 19.5t-79 52.5t-47.5 86.5t-23.5 112t-6 139.5q0 94 6.5 158t24 116.5t49 82t79 45t116.5 15.5zM229 396
v-54q-1 -35 -0.5 -65.5t2 -56.5t7 -46.5t14 -35t23.5 -22t35 -7.5q31 0 49.5 13.5t26 54.5t8.5 69.5t1 102.5v49q0 157 -3 184q-9 85 -57 98q-10 3 -23 3q-31 0 -49 -14t-25 -55.5t-8.5 -68t-0.5 -99.5v-50z" />
    <glyph glyph-name="P" unicode="P" horiz-adv-x="589" 
d="M48 795h273q143 0 201 -82q38 -53 45.5 -127.5t-12.5 -129.5q-32 -106 -128 -136q-12 -4 -24.5 -6.5t-21.5 -4t-24 -3t-20.5 -2t-24 -1t-22 -0.5h-27h-26.5v-303h-189v795zM237 446h58q45 0 64 25t19 82q0 104 -86 104h-55v-211z" />
    <glyph glyph-name="Q" unicode="Q" 
d="M409 -6q-56 -15 -130.5 -10t-116.5 30q-36 22 -57 46t-39 69q-16 40 -25 106.5t-9 116.5v69q0 152 29 241q28 82 89 116q46 32 160 32q130 0 198 -55q82 -66 82 -316v-96q0 -190 -57 -271l89 -96l-110 -95zM229 396q0 -158 3 -184q9 -88 57 -101q10 -2 21 -2
q31 0 49.5 14.5t26 55.5t8.5 71.5t1 105.5v42q0 157 -4 187q-10 85 -60 96q-9 2 -19 2q-30 0 -48 -15t-25.5 -57t-8.5 -72t-1 -102v-41z" />
    <glyph glyph-name="R" unicode="R" horiz-adv-x="602" 
d="M48 795h297q80 0 124 -22q42 -21 68 -62q29 -44 34.5 -115t-14.5 -113q-16 -33 -40 -53.5t-67 -36.5q35 -11 58.5 -27.5t35.5 -31.5t18 -43.5t6.5 -45.5t0.5 -55v-20v-45q0 -60 5 -80t30 -37v-8h-198q-20 55 -20 72v90q0 128 -40 157q-4 3 -11 4.5t-18.5 1.5h-21h-28
h-30.5v-325h-189v795zM237 457h58q56 0 73.5 18t17.5 85q0 35 -4.5 55t-18 29.5t-27.5 11.5t-44 2h-55v-201z" />
    <glyph glyph-name="S" unicode="S" horiz-adv-x="593" 
d="M546 575h-176q0 83 -47 105q-37 15 -71 -11q-36 -28 -28 -82q6 -38 29.5 -58t77.5 -43l33 -14q106 -43 150 -84t52 -128q7 -64 -11 -130.5t-76 -105.5q-56 -37 -174.5 -40t-172.5 27q-59 30 -79.5 74.5t-20.5 105.5v50h180q0 -130 76 -130q39 0 62 25q21 22 21 59
q0 38 -27.5 72.5t-83.5 53.5l-23 9q-102 41 -142.5 80t-51.5 119q-7 53 12 123.5t68 107.5q38 30 97 42t111 8.5t97 -16.5q38 -11 62.5 -32.5t36 -53t15.5 -61.5t4 -72z" />
    <glyph glyph-name="T" unicode="T" horiz-adv-x="554" 
d="M28 795h515v-154h-163v-641h-189v641h-163v154z" />
    <glyph glyph-name="U" unicode="U" 
d="M48 795h189v-558q0 -75 14.5 -102.5t58.5 -27.5q47 0 59.5 26.5t12.5 103.5v558h189v-548v-18q0 -35 -0.5 -52.5t-5.5 -46t-15 -46t-30 -38t-50 -35.5q-50 -26 -152 -27.5t-171 30.5q-29 15 -48.5 35t-29.5 36.5t-15 45.5t-5.5 46t-0.5 53v15v550z" />
    <glyph glyph-name="V" unicode="V" horiz-adv-x="627" 
d="M321 179l99 616h198l-180 -795h-233l-180 795h198z" />
    <glyph glyph-name="W" unicode="W" horiz-adv-x="874" 
d="M24 795h181l73 -558l79 558h175l91 -555l65 555h176l-134 -795h-202l-88 540l-72 -540h-205z" />
    <glyph glyph-name="X" unicode="X" horiz-adv-x="640" 
d="M40 795h205l83 -244l82 244h206l-177 -395l191 -400h-208l-95 253l-94 -253h-205l189 400z" />
    <glyph glyph-name="Y" unicode="Y" horiz-adv-x="627" 
d="M25 795h206l92 -291l91 291h200l-203 -485v-310h-188v310z" />
    <glyph glyph-name="Z" unicode="Z" horiz-adv-x="528" 
d="M48 795h463v-141l-267 -504h264v-150h-479v137l266 504h-247v154z" />
    <glyph glyph-name="bracketleft" unicode="[" horiz-adv-x="366" 
d="M48 795h280v-129h-113v-724h113v-129h-280v982z" />
    <glyph glyph-name="backslash" unicode="\" horiz-adv-x="562" 
d="M529 -8h-86l-395 795h86z" />
    <glyph glyph-name="bracketright" unicode="]" horiz-adv-x="366" 
d="M328 -187h-280v129h114v724h-114v129h280v-982z" />
    <glyph glyph-name="asciicircum" unicode="^" horiz-adv-x="596" 
d="M202 870h207l153 -205h-176l-83 109l-84 -109h-173z" />
    <glyph glyph-name="underscore" unicode="_" horiz-adv-x="565" 
d="M596 -126h-593v39h593v-39z" />
    <glyph glyph-name="grave" unicode="`" horiz-adv-x="313" 
d="M46 824h171l53 -159h-115z" />
    <glyph glyph-name="a" unicode="a" horiz-adv-x="530" 
d="M521 0h-175l-14 66q-58 -94 -167 -81q-74 7 -114 86q-19 34 -16.5 100t29.5 109q18 29 56 50t71.5 29.5t71.5 15.5t43 9q19 5 22.5 13t3.5 48q0 59 -49 59q-42 0 -56.5 -16.5t-14.5 -71.5h-161q0 59 18 101.5t71 71.5q44 23 144 22.5t148 -24.5q50 -25 59 -63t9 -154
v-265q0 -47 3.5 -64t17.5 -41zM234 256q-17 -14 -17 -68q0 -66 61 -66q54 0 54 58v114q-16 -9 -49 -17t-49 -21z" />
    <glyph glyph-name="b" unicode="b" horiz-adv-x="557" 
d="M48 792h178v-252q37 46 73.5 61.5t81.5 9.5q41 -6 71 -21.5t54 -54.5q35 -61 36.5 -222t-28.5 -224q-38 -85 -122 -103q-84 -14 -130 28q-11 9 -20 21t-12 19l-4 8v-62h-178v792zM226 235q0 -53 17 -85t49 -32q33 0 48.5 34t15.5 86v111q0 132 -65 132t-65 -139v-107z
" />
    <glyph glyph-name="c" unicode="c" horiz-adv-x="530" 
d="M517 375h-169q0 67 -14.5 96t-49.5 29q-38 0 -50 -33.5t-12 -116.5v-112q0 -80 14.5 -108.5t55.5 -28.5q37 0 49 32.5t12 107.5h164q0 -51 -5.5 -90.5t-15 -66.5t-26.5 -46t-34.5 -29.5t-45 -16.5t-51.5 -7.5t-61 -1.5q-76 0 -115 13q-40 13 -66 39t-36.5 54t-17.5 69
q-14 81 -6 230q7 113 49 160q35 39 76.5 51.5t124.5 12.5q134 0 182 -48.5t48 -188.5z" />
    <glyph glyph-name="d" unicode="d" horiz-adv-x="566" 
d="M529 0h-177v62q-13 -27 -36 -48q-48 -42 -130 -28q-84 17 -122 103q-30 63 -28.5 224t36.5 222q24 39 54 55t71 21q90 11 155 -71v252h177v-792zM352 342q0 139 -65 139t-65 -132v-111q0 -52 15 -86t48 -34t50 32t17 85v107z" />
    <glyph glyph-name="e" unicode="e" horiz-adv-x="528" 
d="M515 273h-299v-68q0 -65 16 -88.5t51 -23.5q62 0 65 112h162q2 -135 -93 -193q-45 -27 -136.5 -28.5t-135.5 19.5q-51 22 -71.5 60.5t-31.5 102.5q-11 67 -6 197q6 136 54 190q24 27 63.5 41t65 16t69.5 2q85 0 132.5 -27t71.5 -101.5t23 -210.5zM278 499
q-34 0 -48 -26.5t-14 -101.5h126q0 73 -15.5 100.5t-48.5 27.5z" />
    <glyph glyph-name="f" unicode="f" horiz-adv-x="331" 
d="M343 802v-119q-61 0 -72 -11t-11 -75h83v-122h-83v-475h-177v475h-77v122h77v18v22.5t0.5 22.5t2.5 25.5t5 24t8 25t11.5 21t16 19.5t21.5 14q9 5 25 8t41.5 4t41.5 1.5t48.5 0t38.5 -0.5z" />
    <glyph glyph-name="g" unicode="g" horiz-adv-x="566" 
d="M357 524v73h178v-532v-31v-34t-1.5 -30.5t-5 -33t-10 -29t-16 -31t-23.5 -25t-32 -24.5q-49 -30 -153.5 -32t-159.5 25q-47 23 -62 52.5t-15 85.5h163q5 -36 21 -45.5t51 -9.5q32 0 46.5 20.5t16.5 46.5t2 92v27q-32 -48 -67 -64.5t-89 -13.5q-85 5 -129 86
q-36 65 -37.5 211t34.5 214q43 80 133 89q53 6 86 -11.5t69 -75.5zM345 339q0 139 -65 139t-65 -132v-86q0 -52 15 -86t48 -34t50 32.5t17 85.5v81z" />
    <glyph glyph-name="h" unicode="h" horiz-adv-x="558" 
d="M48 792h178v-253q39 52 98.5 67.5t107.5 -5.5q16 -6 29 -14t22.5 -19t16 -20t10.5 -24t6.5 -24t3.5 -27.5t1.5 -26.5t0 -28.5t-0.5 -26.5v-391h-178v356v28t-1.5 25.5t-5 26.5t-9.5 19t-17 15.5t-25 4.5q-21 0 -34.5 -11t-18 -34t-5.5 -35.5t-1 -37.5v-357h-178v792z" />
    <glyph glyph-name="i" unicode="i" horiz-adv-x="259" 
d="M224 802v-141h-176v141h176zM48 597h178v-597h-178v597z" />
    <glyph glyph-name="j" unicode="j" horiz-adv-x="259" 
d="M48 597h178v-586v-17v-21.5t-0.5 -22.5t-2.5 -25t-5 -23t-8 -24t-12 -20.5t-17 -18.5t-22 -14q-11 -5 -28.5 -9t-32 -5.5t-37.5 -2.5t-34.5 -1h-34h-25.5v124q54 0 66 14q4 4 6.5 8t4.5 10.5t2.5 11t1 14.5t0.5 15.5v20.5v23v549zM224 805v-142h-176v142h176z" />
    <glyph glyph-name="k" unicode="k" horiz-adv-x="575" 
d="M48 792h178v-410l134 215h195l-167 -244l190 -353h-196l-112 222l-44 -61v-161h-178v792z" />
    <glyph glyph-name="l" unicode="l" horiz-adv-x="259" 
d="M48 792h178v-792h-178v792z" />
    <glyph glyph-name="m" unicode="m" horiz-adv-x="843" 
d="M508 528q54 84 153 84q74 0 106 -30q10 -9 17 -19t11 -25t7 -23.5t4 -30t1 -28v-33v-30.5v-393h-177v352v11q0 30 -1 46t-7.5 35.5t-19.5 27.5q-8 5 -23.5 6t-27.5 -4q-34 -19 -34 -76v-398h-178v349q0 65 -5.5 89t-24.5 36q-9 4 -25.5 4t-25.5 -6q-32 -19 -32 -77v-395
h-178v597h178v-57q53 72 149 72q90 0 133 -84z" />
    <glyph glyph-name="n" unicode="n" horiz-adv-x="555" 
d="M518 0h-177v325v24v22.5v20t-1 19.5t-2 16t-3.5 15t-5.5 12t-7 10.5t-10 7.5q-24 15 -53 0q-33 -15 -33 -90v-382h-178v597h178v-58q57 73 147 73q88 0 121 -50q6 -8 10 -17.5t7 -22t4.5 -21t2 -26.5t0.5 -25v-29.5v-29.5v-391z" />
    <glyph glyph-name="o" unicode="o" horiz-adv-x="543" 
d="M274 612q148 0 201 -67.5t53 -245.5q0 -98 -13 -159t-44.5 -96.5t-76.5 -48t-117 -12.5q-97 0 -147 26t-72.5 92.5t-22.5 194.5q0 181 48 248.5t191 67.5zM216 296q0 -124 8 -152q16 -42 61 -44q23 0 35.5 8.5t18 36t6.5 49t1 75.5v30q0 120 -5 145q-11 52 -57 52
q-25 0 -40 -9t-21 -37.5t-6.5 -46.5t-0.5 -70v-37z" />
    <glyph glyph-name="p" unicode="p" horiz-adv-x="560" 
d="M48 597h178v-62q12 27 36 48q44 40 130 26q84 -16 122 -101q30 -63 28.5 -224t-36.5 -222q-41 -67 -125 -77q-45 -6 -81.5 10t-73.5 62v-252h-178v792zM226 255q0 -139 65 -139t65 132v111q0 52 -15.5 86t-48.5 34t-49.5 -32.5t-16.5 -85.5v-106z" />
    <glyph glyph-name="q" unicode="q" horiz-adv-x="565" 
d="M529 -195h-177v252q-66 -83 -155 -72q-84 9 -125 77q-35 61 -36.5 222t28.5 224q19 44 47.5 68t74.5 33q84 14 130 -26q10 -9 19 -21t13 -20l4 -7v62h177v-792zM352 361q0 53 -17 85.5t-50 32.5t-48 -34t-15 -86v-111q0 -132 65 -132t65 139v106z" />
    <glyph glyph-name="r" unicode="r" horiz-adv-x="400" 
d="M389 607v-168q-88 20 -133 -21q-6 -6 -11 -14.5t-8 -16t-5.5 -20t-3.5 -20.5t-1.5 -22.5t-0.5 -20v-21v-17.5v-266h-178v597h178v-80q26 44 49.5 62.5t63.5 25.5q11 2 50 2z" />
    <glyph glyph-name="s" unicode="s" horiz-adv-x="503" 
d="M472 425h-156q0 20 -1 30t-8 22.5t-22 19.5q-10 6 -28 6.5t-31 -6.5q-27 -17 -27 -44q0 -31 30 -51q19 -13 71.5 -30.5t99.5 -40t67 -54.5q23 -36 23 -91.5t-18 -92.5q-43 -93 -165 -107q-28 -1 -69.5 -2.5t-94 14.5t-79.5 48q-34 39 -34 147h157q0 -24 1 -37t9.5 -30
t25.5 -26q28 -16 62 1q31 15 34 51q0 37 -35 61q-23 16 -72.5 32t-92 37.5t-66.5 60.5q-17 29 -18 84.5t16 91.5q44 85 155 92q177 13 236 -61q18 -23 24 -50t6 -75z" />
    <glyph glyph-name="t" unicode="t" horiz-adv-x="346" 
d="M78 767h177v-170h84v-122h-84v-277q0 -57 12 -70t72 -13v-116q-30 -4 -67 -6t-88.5 3.5t-72.5 22.5q-8 7 -14 16t-9.5 21t-6 22t-3 25.5t-0.5 23v23v18.5v308h-74v121h74v170z" />
    <glyph glyph-name="u" unicode="u" horiz-adv-x="551" 
d="M48 597h178v-326v-30v-28.5t0.5 -23.5t2.5 -22t5 -17t8.5 -15.5t12.5 -9.5q10 -7 25.5 -6.5t26.5 7.5q6 4 11 9.5t9 13.5t6.5 14.5t4 17.5t2.5 18t1 20.5v20.5v22v22v313h177v-597h-177v58q-59 -75 -147 -75q-86 0 -122 52q-6 8 -10 17t-7 21.5t-4.5 21t-2 26.5
t-0.5 25.5v30v29.5v391z" />
    <glyph glyph-name="v" unicode="v" horiz-adv-x="546" 
d="M24 597h187l73 -429l69 429h177l-146 -597h-208z" />
    <glyph glyph-name="w" unicode="w" horiz-adv-x="832" 
d="M26 597h180l59 -434l67 434h190l67 -434l62 434h172l-126 -597h-203l-69 428l-68 -428h-206z" />
    <glyph glyph-name="x" unicode="x" horiz-adv-x="558" 
d="M36 597h180l68 -170l75 170h181l-151 -288l158 -309h-179l-80 188l-77 -188h-185l160 310z" />
    <glyph glyph-name="y" unicode="y" horiz-adv-x="550" 
d="M212 597l75 -407l68 407h181l-155 -591q-29 -105 -65.5 -150t-93.5 -51.5t-144 0.5v126q59 0 72 11t32 74q3 8 4 12l-160 569h186z" />
    <glyph glyph-name="z" unicode="z" horiz-adv-x="503" 
d="M48 597h427v-134l-226 -320h234v-143h-444v140l221 318h-212v139z" />
    <glyph glyph-name="braceleft" unicode="{" horiz-adv-x="511" 
d="M316 50v-72q0 -25 0.5 -35t3.5 -32t9 -34t19.5 -27t32.5 -25q39 -21 94 -30v-39q-155 8 -215 74q-19 21 -28 49t-9.5 42.5t-0.5 56.5v82q0 63 -9 87q-13 33 -48 58q-37 25 -117 36v51q80 11 117 36q9 7 16.5 14t13 13t10 15t7.5 13.5t5 15t3 14t1.5 16t0.5 14.5v16v15v81
q0 75 10 103q9 25 28 46q60 65 215 73v-39q-51 -7 -94 -30q-19 -10 -32.5 -25t-19.5 -27t-9 -34t-3.5 -32t-0.5 -35v-72q0 -60 -12.5 -99t-43 -62t-65.5 -34t-97 -22q50 -9 79.5 -17t59.5 -23t45 -36.5t24.5 -56t9.5 -83.5z" />
    <glyph glyph-name="bar" unicode="|" horiz-adv-x="129" 
d="M98 -89h-50v920h50v-920z" />
    <glyph glyph-name="braceright" unicode="}" horiz-adv-x="511" 
d="M425 266q-62 11 -96.5 22t-65 34t-43 62t-12.5 99v72q0 29 -1 44t-6.5 38.5t-20 40.5t-37.5 30q-45 23 -95 30v39q155 -8 215 -73q20 -21 29 -49.5t9.5 -43.5t0.5 -56v-81v-16.5v-18t0.5 -16t2.5 -17t4.5 -15.5t7 -17t10 -15t14 -16.5t18.5 -14.5q35 -25 116 -36v-51
q-81 -11 -116 -36q-10 -7 -18.5 -14.5t-14 -16t-10 -14.5t-7 -17t-4.5 -15.5t-2.5 -17.5t-0.5 -16v-17.5v-16.5v-82q0 -41 -0.5 -56t-9.5 -43t-29 -49q-60 -66 -215 -74v39q54 9 95 30q23 13 37.5 30t20 40.5t6.5 38.5t1 44v72q0 49 9.5 83.5t24.5 56t45 36.5t59 23t79 17z
" />
    <glyph glyph-name="asciitilde" unicode="~" horiz-adv-x="594" 
d="M472 852h94q-7 -68 -27.5 -108.5t-67.5 -60.5q-20 -9 -41.5 -11t-51 4.5t-59 16t-78.5 27.5q-43 16 -71 -7q-18 -16 -26 -48h-97q17 126 98 172q28 16 61 16t55 -6.5t67 -22.5l24 -10q25 -10 37 -13.5t28.5 -3.5t28.5 8q23 14 26 47z" />
    <glyph glyph-name="exclamdown" unicode="&#xa1;" horiz-adv-x="256" 
d="M223 446h-175v161h175v-161zM46 -183v225l23 340h133l24 -340v-225h-180z" />
    <glyph glyph-name="cent" unicode="&#xa2;" horiz-adv-x="535" 
d="M328 611q107 -5 148 -56t41 -180h-169q0 67 -14.5 96t-49.5 29q-38 0 -50 -33.5t-12 -116.5v-112q0 -80 14.5 -108.5t55.5 -28.5q37 0 49 32.5t12 107.5h164q0 -79 -12.5 -130t-38.5 -78t-58 -37t-80 -11v-105h-86v105q-51 0 -97 18q-48 20 -68.5 55.5t-33.5 99.5
q-8 40 -8 180q0 153 51 210q55 64 156 64v90h86v-91z" />
    <glyph glyph-name="sterling" unicode="&#xa3;" horiz-adv-x="611" 
d="M565 562h-163q0 41 -8.5 68t-37.5 40q-36 17 -68 -5q-37 -24 -35 -79q1 -19 10 -44t16.5 -40t32.5 -64h185v-106h-148q8 -64 -13.5 -104.5t-88.5 -97.5q31 11 51 11t43 -9q56 -22 90 -20q48 5 99 40l53 -115q-84 -46 -140.5 -51t-136.5 21l-23 7q-57 17 -90.5 14
t-99.5 -35l-47 107q80 59 106 110.5t7 121.5h-111v106h70q-22 44 -34 79t-12 79t19 83q39 83 146 106q31 4 74.5 6.5t98.5 -10.5t87 -40q68 -56 68 -179z" />
    <glyph glyph-name="section" unicode="&#xa7;" horiz-adv-x="594" 
d="M535 607h-164q0 55 -39 70q-9 5 -29.5 5t-32.5 -10q-30 -22 -21 -57q9 -34 117 -82l20 -8q91 -41 114 -57q50 -37 61 -115q0 -6 1 -12q11 -107 -77 -184q85 -95 50 -212q-24 -87 -124 -115q-31 -10 -81 -12.5t-108.5 9t-91.5 40.5q-36 32 -48.5 71t-12.5 95h169
q0 -35 8 -57.5t32 -33.5q32 -15 59 4q24 18 24 65q0 9 -2 17t-7.5 15t-9.5 12t-14 11.5t-15 9.5t-18 9t-17.5 7.5t-19 7.5t-17.5 7l-21 8q-88 38 -127 74t-47 106q-12 107 91 183q-84 82 -54 187q15 53 47 81t87 42q35 6 83 8t104.5 -12.5t84.5 -43.5q46 -50 46 -133z
M194 332q1 -5 3 -9t4.5 -8t7 -8t7.5 -6.5t9 -6.5t9 -6.5t10.5 -6.5t10 -5t11 -5.5t10.5 -5.5q12 -7 38 -21.5t56 -30.5q4 4 13.5 13t13 13t9.5 11t8 11.5t4.5 11.5t2 14t-2.5 15q-3 10 -13 21.5t-21 20t-29.5 19t-29.5 16t-29.5 14.5t-21.5 10l-30 15q-26 -26 -34.5 -35
t-13.5 -22t-2 -29z" />
    <glyph glyph-name="dieresis" unicode="&#xa8;" horiz-adv-x="416" 
d="M48 810h142v-145h-142v145zM247 810h141v-145h-141v145z" />
    <glyph glyph-name="guillemotleft" unicode="&#xab;" horiz-adv-x="458" 
d="M220 381l-88 -69l87 -68v-165l-171 123v215l172 126v-162zM422 381l-88 -69l87 -68v-165l-170 123v215l171 126v-162z" />
    <glyph glyph-name="acute" unicode="&#xb4;" horiz-adv-x="313" 
d="M163 665h-115l53 159h172z" />
    <glyph glyph-name="mu" unicode="&#xb5;" horiz-adv-x="1024" 
d="M683 807h106l-441 -843h-107zM48 778h347v-83q-124 -181 -150 -383h-131q20 195 151 371h-217v95zM903 245q73 -21 82 -95q9 -84 -50 -131q-21 -17 -68 -24t-90.5 -4.5t-65.5 10.5q-71 27 -82 97q-8 49 10 89t69 60q-67 34 -68 91q-2 64 43 100q27 22 95 27t100 -7
q67 -16 87 -70q8 -19 6.5 -49.5t-14.5 -50.5q-22 -32 -54 -43zM762 348q-5 -44 19 -63q20 -14 40 -5q22 10 28 45q4 43 -19 63q-20 15 -41 7q-22 -9 -27 -47zM760 94q9 -28 38 -36q26 -4 43 15q11 12 15 42.5t-1 46.5q-9 36 -34 44q-23 9 -43 -5q-19 -15 -22.5 -53t4.5 -54z
" />
    <glyph glyph-name="periodcentered" unicode="&#xb7;" horiz-adv-x="273" 
d="M126 6h46l-49 -75q30 6 63.5 -1.5t53.5 -31.5q22 -31 15 -66q-11 -42 -61 -65q-44 -18 -111 -13.5t-98 24.5l23 38q82 -31 119 -10q24 13 24 40q0 26 -25 38t-66 -3l-13 15z" />
    <glyph glyph-name="guillemotright" unicode="&#xbb;" horiz-adv-x="458" 
d="M251 543l171 -126v-215l-170 -123v165l87 68l-88 69v162zM48 543l172 -126v-215l-170 -123v165l87 68l-89 69v162z" />
    <glyph glyph-name="questiondown" unicode="&#xbf;" horiz-adv-x="553" 
d="M374 605v-162h-176v162h176zM206 381h164q0 -49 -0.5 -65.5t-5 -38.5t-15.5 -47q-8 -17 -52 -68.5t-59 -81.5q-18 -36 -14 -105q2 -26 18.5 -38.5t33.5 -12.5q34 0 54 30t20 112h164q0 -162 -85 -220q-48 -33 -128.5 -38.5t-125.5 15.5q-55 22 -84 55t-40 85
q-14 69 9.5 133t84.5 137q41 48 50.5 74t10.5 74z" />
    <glyph glyph-name="Agrave" unicode="&#xc0;" horiz-adv-x="668" 
d="M224 795h237l197 -795h-188l-41 145h-177l-37 -145h-189zM274 295h128l-64 349zM180 1105h172l52 -159h-115z" />
    <glyph glyph-name="Aacute" unicode="&#xc1;" horiz-adv-x="668" 
d="M226 795h237l196 -795h-188l-40 145h-178l-37 -145h-188zM327 863h-115l53 159h171zM276 295h127l-64 349z" />
    <glyph glyph-name="Acircumflex" unicode="&#xc2;" horiz-adv-x="668" 
d="M226 795h237l196 -795h-188l-40 145h-178l-37 -145h-188zM276 295h127l-64 349zM230 1068h206l154 -205h-176l-83 109l-84 -109h-174z" />
    <glyph glyph-name="Atilde" unicode="&#xc3;" horiz-adv-x="668" 
d="M226 795h237l196 -795h-188l-40 145h-178l-37 -145h-188zM276 295h127l-64 349zM497 1133h94q-7 -68 -27.5 -108.5t-67.5 -60.5q-20 -9 -41.5 -11t-51 4.5t-59 16t-78.5 27.5q-43 16 -71 -7q-17 -13 -26 -48h-97q17 127 98 172q28 16 61 16t55 -6.5t67 -22.5l24 -9
q24 -10 37 -14t29 -4t28 8q21 13 26 47z" />
    <glyph glyph-name="Adieresis" unicode="&#xc4;" horiz-adv-x="668" 
d="M223 795h237l197 -795h-189l-40 145h-177l-38 -145h-188zM273 295h127l-63 349zM169 1008h141v-145h-141v145zM367 1008h141v-145h-141v145z" />
    <glyph glyph-name="Aring" unicode="&#xc5;" horiz-adv-x="668" 
d="M222 795h236l197 -795h-188l-40 145h-178l-37 -145h-188zM271 295h128l-64 349zM332 932q27 -3 49 13.5t25 43.5t-13.5 48.5t-43.5 24.5t-48.5 -13t-24.5 -43q-4 -27 12.5 -49t43.5 -25zM206 1010q4 54 48 90t99 32q56 -4 92 -47.5t31 -99.5q-4 -56 -47.5 -91.5
t-100.5 -30.5q-54 4 -90 47.5t-32 99.5z" />
    <glyph glyph-name="AE" unicode="&#xc6;" horiz-adv-x="917" 
d="M309 291h119v372zM428 0v150h-162l-51 -150h-194l299 795h565v-151h-269v-161h252v-149h-252v-183h282v-151h-470z" />
    <glyph glyph-name="Ccedilla" unicode="&#xc7;" horiz-adv-x="582" 
d="M249 -14q-14 0 -42 9t-45 19q-79 47 -105 140q-25 81 -25 167v113q0 154 34 246q27 69 95 103q60 28 155 27.5t144 -29.5q29 -17 49 -41t30 -44.5t15 -54t5.5 -52t0.5 -54.5v-14h-179q0 137 -44 159q-28 14 -63 0q-17 -8 -27 -25.5t-13.5 -54t-4 -52t-0.5 -65.5v-184
q0 -53 1.5 -80t11 -58.5t29.5 -44.5q36 -21 74 4q20 14 30.5 50.5t12 64.5t1.5 78h180q0 -47 -1 -72.5t-6.5 -65.5t-17 -64.5t-33.5 -50.5t-54 -43q-61 -34 -162 -34l-33 -52q29 6 62.5 -1.5t53.5 -31.5q24 -30 15 -66q-11 -42 -61 -65q-43 -18 -110.5 -13.5t-98.5 24.5
l24 38q81 -32 119 -10q23 13 23 40t-24 38q-26 11 -67 -3l-12 15z" />
    <glyph glyph-name="Egrave" unicode="&#xc8;" horiz-adv-x="536" 
d="M48 795h458v-151h-269v-161h252v-149h-252v-183h281v-151h-470v795zM186 1022h171l53 -159h-115z" />
    <glyph glyph-name="Eacute" unicode="&#xc9;" horiz-adv-x="536" 
d="M48 795h458v-151h-269v-161h252v-149h-252v-183h281v-151h-470v795zM256 863h-115l53 159h172z" />
    <glyph glyph-name="Ecircumflex" unicode="&#xca;" horiz-adv-x="536" 
d="M48 795h458v-151h-269v-161h252v-149h-252v-183h281v-151h-470v795zM175 1068h206l154 -205h-176l-83 109l-85 -109h-173z" />
    <glyph glyph-name="Edieresis" unicode="&#xcb;" horiz-adv-x="536" 
d="M48 795h458v-151h-269v-161h252v-149h-252v-183h281v-151h-470v795zM105 1008h142v-145h-142v145zM303 1008h142v-145h-142v145z" />
    <glyph glyph-name="Igrave" unicode="&#xcc;" horiz-adv-x="270" 
d="M48 795h189v-795h-189v795zM18 1022h172l52 -159h-115z" />
    <glyph glyph-name="Iacute" unicode="&#xcd;" horiz-adv-x="270" 
d="M48 795h189v-795h-189v795zM165 863h-115l52 159h172z" />
    <glyph glyph-name="Icircumflex" unicode="&#xce;" horiz-adv-x="270" 
d="M48 795h189v-795h-189v795zM35 1068h206l154 -205h-176l-83 109l-85 -109h-173z" />
    <glyph glyph-name="Idieresis" unicode="&#xcf;" horiz-adv-x="270" 
d="M48 795h189v-795h-189v795zM-37 1008h141v-145h-141v145zM161 1008h141v-145h-141v145z" />
    <glyph glyph-name="Ntilde" unicode="&#xd1;" horiz-adv-x="655" 
d="M48 795h230l160 -514v514h188v-795h-227l-162 526v-526h-189v795zM501 1050h95q-8 -68 -28.5 -108.5t-67.5 -60.5q-20 -9 -41.5 -11t-51 4.5t-59 16t-78.5 27.5q-43 17 -71 -7q-18 -16 -26 -48h-97q17 126 99 172q28 16 61 16t54.5 -6.5t66.5 -22.5l24 -10
q25 -10 37 -13.5t28.5 -3.5t28.5 8q23 14 26 47z" />
    <glyph glyph-name="Ograve" unicode="&#xd2;" 
d="M307 810q75 0 125 -15.5t81.5 -44.5t48.5 -82.5t22.5 -115.5t5.5 -159q0 -61 -2 -103t-8.5 -88.5t-18.5 -77t-33 -59.5t-51 -45.5t-73 -26.5t-98 -10q-69 0 -118 19.5t-79 52.5t-47.5 86.5t-23.5 112t-6 139.5q0 94 6.5 158t24 116.5t49 82t79 45t116.5 15.5zM229 396
v-54q-1 -35 -0.5 -65.5t2 -56.5t7 -46.5t14 -35t23.5 -22t35 -7.5q31 0 49.5 13.5t26 54.5t8.5 69.5t1 102.5v49q0 157 -3 184q-9 85 -57 98q-10 3 -23 3q-31 0 -49 -14t-25 -55.5t-8.5 -68t-0.5 -99.5v-50zM157 1022h171l53 -159h-115z" />
    <glyph glyph-name="Oacute" unicode="&#xd3;" 
d="M307 810q75 0 125 -15.5t81.5 -44.5t48.5 -82.5t22.5 -115.5t5.5 -159q0 -61 -2 -103t-8.5 -88.5t-18.5 -77t-33 -59.5t-51 -45.5t-73 -26.5t-98 -10q-69 0 -118 19.5t-79 52.5t-47.5 86.5t-23.5 112t-6 139.5q0 94 6.5 158t24 116.5t49 82t79 45t116.5 15.5zM307 863
h-114l52 159h172zM229 396v-54q-1 -35 -0.5 -65.5t2 -56.5t7 -46.5t14 -35t23.5 -22t35 -7.5q31 0 49.5 13.5t26 54.5t8.5 69.5t1 102.5v49q0 157 -3 184q-9 85 -57 98q-10 3 -23 3q-31 0 -49 -14t-25 -55.5t-8.5 -68t-0.5 -99.5v-50z" />
    <glyph glyph-name="Ocircumflex" unicode="&#xd4;" 
d="M307 810q75 0 125 -15.5t81.5 -44.5t48.5 -82.5t22.5 -115.5t5.5 -159q0 -61 -2 -103t-8.5 -88.5t-18.5 -77t-33 -59.5t-51 -45.5t-73 -26.5t-98 -10q-69 0 -118 19.5t-79 52.5t-47.5 86.5t-23.5 112t-6 139.5q0 94 6.5 158t24 116.5t49 82t79 45t116.5 15.5zM229 396
v-54q-1 -35 -0.5 -65.5t2 -56.5t7 -46.5t14 -35t23.5 -22t35 -7.5q31 0 49.5 13.5t26 54.5t8.5 69.5t1 102.5v49q0 157 -3 184q-9 85 -57 98q-10 3 -23 3q-31 0 -49 -14t-25 -55.5t-8.5 -68t-0.5 -99.5v-50zM204 1068h206l154 -205h-176l-83 109l-85 -109h-173z" />
    <glyph glyph-name="Otilde" unicode="&#xd5;" 
d="M307 810q75 0 125 -15.5t81.5 -44.5t48.5 -82.5t22.5 -115.5t5.5 -159q0 -61 -2 -103t-8.5 -88.5t-18.5 -77t-33 -59.5t-51 -45.5t-73 -26.5t-98 -10q-69 0 -118 19.5t-79 52.5t-47.5 86.5t-23.5 112t-6 139.5q0 94 6.5 158t24 116.5t49 82t79 45t116.5 15.5zM229 396
v-54q-1 -35 -0.5 -65.5t2 -56.5t7 -46.5t14 -35t23.5 -22t35 -7.5q31 0 49.5 13.5t26 54.5t8.5 69.5t1 102.5v49q0 157 -3 184q-9 85 -57 98q-10 3 -23 3q-31 0 -49 -14t-25 -55.5t-8.5 -68t-0.5 -99.5v-50zM467 1133h94q-8 -69 -28.5 -109t-67.5 -60q-20 -9 -41 -11
t-51 4.5t-59 16t-79 27.5q-43 17 -70 -7q-17 -13 -26 -48h-97q17 127 98 172q28 16 61 16t55.5 -6.5t66.5 -22.5l23 -9q24 -10 37 -14t29 -4t28 8q22 13 27 47z" />
    <glyph glyph-name="Odieresis" unicode="&#xd6;" 
d="M307 810q75 0 125 -15.5t81.5 -44.5t48.5 -82.5t22.5 -115.5t5.5 -159q0 -61 -2 -103t-8.5 -88.5t-18.5 -77t-33 -59.5t-51 -45.5t-73 -26.5t-98 -10q-69 0 -118 19.5t-79 52.5t-47.5 86.5t-23.5 112t-6 139.5q0 94 6.5 158t24 116.5t49 82t79 45t116.5 15.5zM229 396
v-54q-1 -35 -0.5 -65.5t2 -56.5t7 -46.5t14 -35t23.5 -22t35 -7.5q31 0 49.5 13.5t26 54.5t8.5 69.5t1 102.5v49q0 157 -3 184q-9 85 -57 98q-10 3 -23 3q-31 0 -49 -14t-25 -55.5t-8.5 -68t-0.5 -99.5v-50zM137 1008h141v-145h-141v145zM335 1008h141v-145h-141v145z" />
    <glyph glyph-name="Oslash" unicode="&#xd8;" 
d="M463 853l76 -33l-29 -68q44 -32 66 -138q14 -66 14 -182v-89q0 -108 -19 -185q-13 -50 -33 -79.5t-52 -52.5q-36 -26 -95 -36t-113 -5.5t-92 19.5l-32 -73l-76 33l37 86q-54 58 -72 169q-11 65 -11 156v60q0 89 12 159q22 123 83 169q37 27 97.5 39t116.5 8.5t97 -16.5z
M341 679q-33 9 -65 -4q-31 -14 -41 -67q-6 -32 -6 -151v-145l146 338q-16 23 -34 29zM395 488l-148 -343q15 -31 54 -36q40 -2 60 18q7 7 12.5 17t9 20t6 26t4 26.5t2 30t0.5 28v29.5v27v157z" />
    <glyph glyph-name="Ugrave" unicode="&#xd9;" 
d="M48 795h189v-558q0 -75 14.5 -102.5t58.5 -27.5q47 0 59.5 26.5t12.5 103.5v558h189v-548v-18q0 -35 -0.5 -52.5t-5.5 -46t-15 -46t-30 -38t-50 -35.5q-50 -26 -152 -27.5t-171 30.5q-29 15 -48.5 35t-29.5 36.5t-15 45.5t-5.5 46t-0.5 53v15v550zM147 1022h172l52 -159
h-115z" />
    <glyph glyph-name="Uacute" unicode="&#xda;" 
d="M48 795h189v-558q0 -75 14.5 -102.5t58.5 -27.5q47 0 59.5 26.5t12.5 103.5v558h189v-548v-18q0 -35 -0.5 -52.5t-5.5 -46t-15 -46t-30 -38t-50 -35.5q-50 -26 -152 -27.5t-171 30.5q-29 15 -48.5 35t-29.5 36.5t-15 45.5t-5.5 46t-0.5 53v15v550zM291 863h-115l53 159
h171z" />
    <glyph glyph-name="Ucircumflex" unicode="&#xdb;" 
d="M48 795h189v-558q0 -75 14.5 -102.5t58.5 -27.5q47 0 59.5 26.5t12.5 103.5v558h189v-548v-18q0 -35 -0.5 -52.5t-5.5 -46t-15 -46t-30 -38t-50 -35.5q-50 -26 -152 -27.5t-171 30.5q-29 15 -48.5 35t-29.5 36.5t-15 45.5t-5.5 46t-0.5 53v15v550zM199 1068h207l154 -205
h-176l-83 109l-85 -109h-173z" />
    <glyph glyph-name="Udieresis" unicode="&#xdc;" 
d="M48 795h189v-558q0 -75 14.5 -102.5t58.5 -27.5q47 0 59.5 26.5t12.5 103.5v558h189v-548v-18q0 -35 -0.5 -52.5t-5.5 -46t-15 -46t-30 -38t-50 -35.5q-50 -26 -152 -27.5t-171 30.5q-29 15 -48.5 35t-29.5 36.5t-15 45.5t-5.5 46t-0.5 53v15v550zM136 1008h141v-145
h-141v145zM334 1008h141v-145h-141v145z" />
    <glyph glyph-name="germandbls" unicode="&#xdf;" horiz-adv-x="565" 
d="M435 447q40 -7 64.5 -29t37.5 -65q17 -43 10.5 -146.5t-36.5 -144.5q-49 -69 -163 -69q-40 0 -75 7v119q56 -14 80 31q15 27 17 96.5t-9 91.5q-27 60 -90 44v121q47 -13 68 29q10 16 11 54.5t-7 57.5q-10 34 -41 42q-35 5 -53 -10q-18 -16 -21.5 -39t-3.5 -87v-18v-532
h-176v517q0 106 16 155q22 72 79 104q57 29 153 29.5t154 -34.5q53 -35 67.5 -79.5t10.5 -109.5q-5 -53 -24 -81t-69 -54z" />
    <glyph glyph-name="agrave" unicode="&#xe0;" horiz-adv-x="530" 
d="M521 0h-175l-14 66q-58 -94 -167 -81q-74 7 -114 86q-19 34 -16.5 100t29.5 109q18 29 56 50t71.5 29.5t71.5 15.5t43 9q19 5 22.5 13t3.5 48q0 59 -49 59q-42 0 -56.5 -16.5t-14.5 -71.5h-161q0 59 18 101.5t71 71.5q44 23 144 22.5t148 -24.5q50 -25 59 -63t9 -154
v-265q0 -47 3.5 -64t17.5 -41zM234 256q-17 -14 -17 -68q0 -66 61 -66q54 0 54 58v114q-16 -9 -49 -17t-49 -21zM186 824h171l53 -159h-115z" />
    <glyph glyph-name="aacute" unicode="&#xe1;" horiz-adv-x="530" 
d="M521 0h-175l-14 66q-58 -94 -167 -81q-74 7 -114 86q-19 34 -16.5 100t29.5 109q18 29 56 50t71.5 29.5t71.5 15.5t43 9q19 5 22.5 13t3.5 48q0 59 -49 59q-42 0 -56.5 -16.5t-14.5 -71.5h-161q0 59 18 101.5t71 71.5q44 23 144 22.5t148 -24.5q50 -25 59 -63t9 -154
v-265q0 -47 3.5 -64t17.5 -41zM262 665h-115l52 159h172zM234 256q-17 -14 -17 -68q0 -66 61 -66q54 0 54 58v114q-16 -9 -49 -17t-49 -21z" />
    <glyph glyph-name="acircumflex" unicode="&#xe2;" horiz-adv-x="530" 
d="M521 0h-175l-14 66q-58 -94 -167 -81q-74 7 -114 86q-19 34 -16.5 100t29.5 109q18 29 56 50t71.5 29.5t71.5 15.5t43 9q19 5 22.5 13t3.5 48q0 59 -49 59q-42 0 -56.5 -16.5t-14.5 -71.5h-161q0 59 18 101.5t71 71.5q44 23 144 22.5t148 -24.5q50 -25 59 -63t9 -154
v-265q0 -47 3.5 -64t17.5 -41zM234 256q-17 -14 -17 -68q0 -66 61 -66q54 0 54 58v114q-16 -9 -49 -17t-49 -21zM169 870h206l154 -205h-176l-83 109l-84 -109h-174z" />
    <glyph glyph-name="atilde" unicode="&#xe3;" horiz-adv-x="530" 
d="M521 0h-175l-14 66q-58 -94 -167 -81q-74 7 -114 86q-19 34 -16.5 100t29.5 109q18 29 56 50t71.5 29.5t71.5 15.5t43 9q19 5 22.5 13t3.5 48q0 59 -49 59q-42 0 -56.5 -16.5t-14.5 -71.5h-161q0 59 18 101.5t71 71.5q44 23 144 22.5t148 -24.5q50 -25 59 -63t9 -154
v-265q0 -47 3.5 -64t17.5 -41zM234 256q-17 -14 -17 -68q0 -66 61 -66q54 0 54 58v114q-16 -9 -49 -17t-49 -21zM435 852h94q-8 -69 -28.5 -109t-66.5 -60q-20 -9 -41.5 -11t-51 4.5t-59 16t-78.5 27.5q-43 16 -71 -7q-18 -16 -26 -48h-97q17 127 98 172q28 16 61 16
t55 -6.5t67 -22.5l23 -10q25 -10 37.5 -13.5t28.5 -3.5t29 8q21 13 26 47z" />
    <glyph glyph-name="adieresis" unicode="&#xe4;" horiz-adv-x="530" 
d="M521 0h-175l-14 66q-58 -94 -167 -81q-74 7 -114 86q-19 34 -16.5 100t29.5 109q18 29 56 50t71.5 29.5t71.5 15.5t43 9q19 5 22.5 13t3.5 48q0 59 -49 59q-42 0 -56.5 -16.5t-14.5 -71.5h-161q0 59 18 101.5t71 71.5q44 23 144 22.5t148 -24.5q50 -25 59 -63t9 -154
v-265q0 -47 3.5 -64t17.5 -41zM234 256q-17 -14 -17 -68q0 -66 61 -66q54 0 54 58v114q-16 -9 -49 -17t-49 -21zM111 810h141v-145h-141v145zM309 810h141v-145h-141v145z" />
    <glyph glyph-name="aring" unicode="&#xe5;" horiz-adv-x="530" 
d="M521 0h-175l-14 66q-58 -94 -167 -81q-74 7 -114 86q-19 34 -16.5 100t29.5 109q18 29 56 50t71.5 29.5t71.5 15.5t43 9q19 5 22.5 13t3.5 48q0 59 -49 59q-42 0 -56.5 -16.5t-14.5 -71.5h-161q0 59 18 101.5t71 71.5q44 23 144 22.5t148 -24.5q50 -25 59 -63t9 -154
v-265q0 -47 3.5 -64t17.5 -41zM234 256q-17 -14 -17 -68q0 -66 61 -66q54 0 54 58v114q-16 -9 -49 -17t-49 -21zM269 734q27 -3 48.5 13.5t24.5 43.5t-13.5 48.5t-43.5 24.5t-48.5 -13.5t-24.5 -43.5t13.5 -48.5t43.5 -24.5zM143 812q4 54 47.5 90t98.5 32q56 -4 92 -47.5
t32 -99.5t-48 -91.5t-100 -30.5q-55 4 -91 47.5t-31 99.5z" />
    <glyph glyph-name="ae" unicode="&#xe6;" horiz-adv-x="810" 
d="M428 547q46 51 116 62t125 -11q42 -13 69 -47t37.5 -82.5t14.5 -88.5t5 -89v-18h-299v-33v-30.5t0.5 -25.5t1.5 -23.5t3.5 -19t6 -17.5t9 -12.5t12.5 -11.5q22 -13 49 -4q31 8 41 49q8 28 8 60h162q0 -70 -24.5 -122.5t-91.5 -81.5q-41 -21 -127.5 -17.5t-123.5 33.5
q-34 28 -48 66q-34 -60 -74.5 -80t-98.5 -20q-50 0 -85 16.5t-59 61.5q-24 46 -22 112.5t27 103.5q13 18 28 32.5t38 25t35 16.5t45 13t38.5 8.5t42.5 7.5q10 2 18 4.5t12.5 7t7.5 8t4 10t1.5 9t0 10.5t-0.5 9q0 50 -27 62q-13 6 -34.5 5t-32.5 -8q-26 -15 -26 -81h-161
q0 135 93 175q37 16 87 20.5t107 -10.5t90 -54zM558 499q-34 0 -48 -26.5t-14 -101.5h126q0 73 -16 100.5t-48 27.5zM234 256q-17 -14 -17 -68q0 -66 61 -66q54 0 54 58v114q-16 -9 -49 -17t-49 -21z" />
    <glyph glyph-name="ccedilla" unicode="&#xe7;" horiz-adv-x="530" 
d="M244 -15q-55 0 -82 11q-27 10 -47 24.5t-31.5 27t-20 34t-12 35t-8.5 41.5q-12 62 -8 181q2 153 51 209q25 30 65 45t66.5 17t69.5 2q134 0 182 -48.5t48 -188.5h-169q0 67 -14.5 96t-49.5 29q-38 0 -50 -33.5t-12 -116.5v-112q0 -80 14.5 -108.5t55.5 -28.5
q37 0 49 32.5t12 107.5h164q0 -71 -11 -119.5t-28 -75.5t-49.5 -41.5t-63.5 -18t-82 -3.5l-27 -40q25 5 52.5 -1t44.5 -26q14 -18 14 -56q-10 -38 -51 -55q-38 -15 -94 -11t-82 20l21 31q67 -25 98 -7q21 10 21 33q0 22 -21 32q-21 11 -57 -3l-9 14z" />
    <glyph glyph-name="egrave" unicode="&#xe8;" horiz-adv-x="528" 
d="M515 273h-299v-68q0 -65 16 -88.5t51 -23.5q62 0 65 112h162q2 -135 -93 -193q-45 -27 -136.5 -28.5t-135.5 19.5q-51 22 -71.5 60.5t-31.5 102.5q-11 67 -6 197q6 136 54 190q24 27 63.5 41t65 16t69.5 2q85 0 132.5 -27t71.5 -101.5t23 -210.5zM278 499
q-34 0 -48 -26.5t-14 -101.5h126q0 73 -15.5 100.5t-48.5 27.5zM176 823h172l52 -160h-115z" />
    <glyph glyph-name="eacute" unicode="&#xe9;" horiz-adv-x="528" 
d="M515 273h-299v-68q0 -65 16 -88.5t51 -23.5q62 0 65 112h162q2 -135 -93 -193q-45 -27 -136.5 -28.5t-135.5 19.5q-51 22 -71.5 60.5t-31.5 102.5q-11 67 -6 197q6 136 54 190q24 27 63.5 41t65 16t69.5 2q85 0 132.5 -27t71.5 -101.5t23 -210.5zM256 665h-115l53 159
h172zM278 499q-34 0 -48 -26.5t-14 -101.5h126q0 73 -15.5 100.5t-48.5 27.5z" />
    <glyph glyph-name="ecircumflex" unicode="&#xea;" horiz-adv-x="528" 
d="M515 273h-299v-68q0 -65 16 -88.5t51 -23.5q62 0 65 112h162q2 -135 -93 -193q-45 -27 -136.5 -28.5t-135.5 19.5q-51 22 -71.5 60.5t-31.5 102.5q-11 67 -6 197q6 136 54 190q24 27 63.5 41t65 16t69.5 2q85 0 132.5 -27t71.5 -101.5t23 -210.5zM278 499
q-34 0 -48 -26.5t-14 -101.5h126q0 73 -15.5 100.5t-48.5 27.5zM168 870h206l154 -205h-176l-83 109l-85 -109h-173z" />
    <glyph glyph-name="edieresis" unicode="&#xeb;" horiz-adv-x="528" 
d="M515 273h-299v-68q0 -65 16 -88.5t51 -23.5q62 0 65 112h162q2 -135 -93 -193q-45 -27 -136.5 -28.5t-135.5 19.5q-51 22 -71.5 60.5t-31.5 102.5q-11 67 -6 197q6 136 54 190q24 27 63.5 41t65 16t69.5 2q85 0 132.5 -27t71.5 -101.5t23 -210.5zM278 499
q-34 0 -48 -26.5t-14 -101.5h126q0 73 -15.5 100.5t-48.5 27.5zM94 810h141v-145h-141v145zM292 810h142v-145h-142v145z" />
    <glyph glyph-name="igrave" unicode="&#xec;" horiz-adv-x="259" 
d="M50 597h177v-597h-177v597zM14 824h172l52 -159h-115z" />
    <glyph glyph-name="iacute" unicode="&#xed;" horiz-adv-x="259" 
d="M48 597h178v-597h-178v597zM158 665h-115l53 159h171z" />
    <glyph glyph-name="icircumflex" unicode="&#xee;" horiz-adv-x="259" 
d="M50 597h177v-597h-177v597zM26 870h207l153 -205h-175l-84 109l-84 -109h-173z" />
    <glyph glyph-name="idieresis" unicode="&#xef;" horiz-adv-x="259" 
d="M50 597h177v-597h-177v597zM-40 810h141v-145h-141v145zM158 810h141v-145h-141v145z" />
    <glyph glyph-name="ntilde" unicode="&#xf1;" horiz-adv-x="555" 
d="M518 0h-177v325v24v22.5v20t-1 19.5t-2 16t-3.5 15t-5.5 12t-7 10.5t-10 7.5q-24 15 -53 0q-33 -15 -33 -90v-382h-178v597h178v-58q57 73 147 73q88 0 121 -50q6 -8 10 -17.5t7 -22t4.5 -21t2 -26.5t0.5 -25v-29.5v-29.5v-391zM443 852h94q-7 -68 -27.5 -108.5
t-67.5 -60.5q-20 -9 -41.5 -11t-51 4.5t-59 16t-78.5 27.5q-43 16 -71 -7q-18 -16 -26 -48h-97q17 127 98 172q28 16 61 16t55 -6.5t67 -22.5l24 -10q67 -27 94 -9q21 13 26 47z" />
    <glyph glyph-name="ograve" unicode="&#xf2;" horiz-adv-x="543" 
d="M274 612q148 0 201 -67.5t53 -245.5q0 -98 -13 -159t-44.5 -96.5t-76.5 -48t-117 -12.5q-97 0 -147 26t-72.5 92.5t-22.5 194.5q0 181 48 248.5t191 67.5zM216 296q0 -124 8 -152q16 -42 61 -44q23 0 35.5 8.5t18 36t6.5 49t1 75.5v30q0 120 -5 145q-11 52 -57 52
q-25 0 -40 -9t-21 -37.5t-6.5 -46.5t-0.5 -70v-37zM180 824h172l52 -159h-115z" />
    <glyph glyph-name="oacute" unicode="&#xf3;" horiz-adv-x="543" 
d="M274 612q148 0 201 -67.5t53 -245.5q0 -98 -13 -159t-44.5 -96.5t-76.5 -48t-117 -12.5q-97 0 -147 26t-72.5 92.5t-22.5 194.5q0 181 48 248.5t191 67.5zM278 665h-115l53 159h172zM216 296q0 -124 8 -152q16 -42 61 -44q23 0 35.5 8.5t18 36t6.5 49t1 75.5v30
q0 120 -5 145q-11 52 -57 52q-25 0 -40 -9t-21 -37.5t-6.5 -46.5t-0.5 -70v-37z" />
    <glyph glyph-name="ocircumflex" unicode="&#xf4;" horiz-adv-x="543" 
d="M274 612q148 0 201 -67.5t53 -245.5q0 -98 -13 -159t-44.5 -96.5t-76.5 -48t-117 -12.5q-97 0 -147 26t-72.5 92.5t-22.5 194.5q0 181 48 248.5t191 67.5zM216 296q0 -124 8 -152q16 -42 61 -44q23 0 35.5 8.5t18 36t6.5 49t1 75.5v30q0 120 -5 145q-11 52 -57 52
q-25 0 -40 -9t-21 -37.5t-6.5 -46.5t-0.5 -70v-37zM176 870h206l154 -205h-176l-83 109l-84 -109h-174z" />
    <glyph glyph-name="otilde" unicode="&#xf5;" horiz-adv-x="543" 
d="M274 612q148 0 201 -67.5t53 -245.5q0 -98 -13 -159t-44.5 -96.5t-76.5 -48t-117 -12.5q-97 0 -147 26t-72.5 92.5t-22.5 194.5q0 181 48 248.5t191 67.5zM216 296q0 -124 8 -152q16 -42 61 -44q23 0 35.5 8.5t18 36t6.5 49t1 75.5v30q0 120 -5 145q-11 52 -57 52
q-25 0 -40 -9t-21 -37.5t-6.5 -46.5t-0.5 -70v-37zM443 852h94q-7 -68 -27.5 -108.5t-67.5 -60.5q-20 -9 -41.5 -11t-51 4.5t-59 16t-78.5 27.5q-43 16 -71 -7q-18 -16 -26 -48h-97q17 127 98 172q28 16 61 16t55 -6.5t67 -22.5l24 -10q67 -27 94 -9q21 13 26 47z" />
    <glyph glyph-name="odieresis" unicode="&#xf6;" horiz-adv-x="543" 
d="M274 612q148 0 201 -67.5t53 -245.5q0 -98 -13 -159t-44.5 -96.5t-76.5 -48t-117 -12.5q-97 0 -147 26t-72.5 92.5t-22.5 194.5q0 181 48 248.5t191 67.5zM216 296q0 -124 8 -152q16 -42 61 -44q23 0 35.5 8.5t18 36t6.5 49t1 75.5v30q0 120 -5 145q-11 52 -57 52
q-25 0 -40 -9t-21 -37.5t-6.5 -46.5t-0.5 -70v-37zM102 810h142v-145h-142v145zM301 810h141v-145h-141v145z" />
    <glyph glyph-name="oslash" unicode="&#xf8;" horiz-adv-x="571" 
d="M445 670l66 -38l-44 -78q36 -35 51 -119q14 -78 8 -202q-5 -145 -62 -197q-35 -32 -98 -44.5t-118.5 -8.5t-93.5 16l-39 -71l-67 40l42 74q-31 31 -47 119q-14 70 -7 202q10 156 64 201q37 31 99 42t113 6.5t90 -16.5zM294 496q-12 2 -28.5 -2t-25.5 -13
q-8 -8 -12.5 -14.5t-8 -25.5t-3.5 -49v-126l116 206q-13 20 -38 24zM229 132q5 -23 34 -31q10 -4 29.5 -1.5t30.5 12.5q23 23 23 90v139z" />
    <glyph glyph-name="ugrave" unicode="&#xf9;" horiz-adv-x="551" 
d="M48 597h178v-326v-30v-28.5t0.5 -23.5t2.5 -22t5 -17t8.5 -15.5t12.5 -9.5q10 -7 25.5 -6.5t26.5 7.5q6 4 11 9.5t9 13.5t6.5 14.5t4 17.5t2.5 18t1 20.5v20.5v22v22v313h177v-597h-177v58q-59 -75 -147 -75q-86 0 -122 52q-6 8 -10 17t-7 21.5t-4.5 21t-2 26.5
t-0.5 25.5v30v29.5v391zM133 824h172l52 -159h-115z" />
    <glyph glyph-name="uacute" unicode="&#xfa;" horiz-adv-x="551" 
d="M48 597h178v-326v-30v-28.5t0.5 -23.5t2.5 -22t5 -17t8.5 -15.5t12.5 -9.5q10 -7 25.5 -6.5t26.5 7.5q6 4 11 9.5t9 13.5t6.5 14.5t4 17.5t2.5 18t1 20.5v20.5v22v22v313h177v-597h-177v58q-59 -75 -147 -75q-86 0 -122 52q-6 8 -10 17t-7 21.5t-4.5 21t-2 26.5
t-0.5 25.5v30v29.5v391zM292 665h-115l53 159h172z" />
    <glyph glyph-name="ucircumflex" unicode="&#xfb;" horiz-adv-x="551" 
d="M48 597h178v-326v-30v-28.5t0.5 -23.5t2.5 -22t5 -17t8.5 -15.5t12.5 -9.5q10 -7 25.5 -6.5t26.5 7.5q6 4 11 9.5t9 13.5t6.5 14.5t4 17.5t2.5 18t1 20.5v20.5v22v22v313h177v-597h-177v58q-59 -75 -147 -75q-86 0 -122 52q-6 8 -10 17t-7 21.5t-4.5 21t-2 26.5
t-0.5 25.5v30v29.5v391zM180 870h206l154 -205h-176l-83 109l-84 -109h-173z" />
    <glyph glyph-name="udieresis" unicode="&#xfc;" horiz-adv-x="551" 
d="M48 597h178v-326v-30v-28.5t0.5 -23.5t2.5 -22t5 -17t8.5 -15.5t12.5 -9.5q10 -7 25.5 -6.5t26.5 7.5q6 4 11 9.5t9 13.5t6.5 14.5t4 17.5t2.5 18t1 20.5v20.5v22v22v313h177v-597h-177v58q-59 -75 -147 -75q-86 0 -122 52q-6 8 -10 17t-7 21.5t-4.5 21t-2 26.5
t-0.5 25.5v30v29.5v391zM93 810h141v-145h-141v145zM291 810h141v-145h-141v145z" />
    <glyph glyph-name="ydieresis" unicode="&#xff;" horiz-adv-x="550" 
d="M212 597l75 -407l68 407h181l-155 -591q-29 -105 -65.5 -150t-93.5 -51.5t-144 0.5v126q59 0 72 11t32 74q3 8 4 12l-160 569h186zM98 810h142v-145h-142v145zM296 810h142v-145h-142v145z" />
    <glyph glyph-name="dotlessi" unicode="&#x131;" horiz-adv-x="259" 
d="M48 597h178v-597h-178v597z" />
    <glyph glyph-name="OE" unicode="&#x152;" horiz-adv-x="899" 
d="M410 795h457v-151h-269v-161h252v-149h-252v-183h282v-151h-470v36q-101 -87 -238 -28q-44 19 -74.5 61t-43.5 91.5t-17.5 85t-4.5 63.5v148q0 244 104 313q40 27 95.5 36t106.5 -7q28 -10 72 -41v37zM227 396v-51q-1 -35 -0.5 -66t2.5 -57.5t7 -47t14 -35t23.5 -22.5
t35.5 -8q31 0 49 13.5t25.5 54.5t8.5 69.5t1 102.5v49q0 157 -2 180q-8 88 -55 102q-12 3 -26 3q-31 0 -49 -14.5t-25 -56t-8 -69t-1 -100.5v-47z" />
    <glyph glyph-name="oe" unicode="&#x153;" horiz-adv-x="817" 
d="M435 540q30 39 77 56.5t87 16.5t77 -12q25 -7 44.5 -22t32.5 -31.5t23 -41.5t15 -43.5t8.5 -46t4 -42t1.5 -39t1 -28.5l1 -34h-299v-26v-25.5v-22.5t1 -22t2.5 -18.5t3.5 -18t5 -14.5t7.5 -14t9.5 -10q13 -10 36 -9t36 12q31 27 31 100h162q2 -140 -107 -199
q-39 -23 -108.5 -22.5t-103.5 23.5q-21 16 -54 57q-75 -104 -234 -75q-111 19 -142 123q-18 60 -18 207q0 149 44 220q36 55 115 68q72 10 123 2q36 -4 60 -17t58 -52zM571 499q-34 0 -48.5 -26.5t-14.5 -101.5h126q0 73 -15.5 100.5t-47.5 27.5zM216 296q0 -124 8 -152
q16 -42 61 -44q23 0 35.5 8.5t18 36t6.5 49t1 75.5v30q0 120 -5 145q-11 52 -57 52q-25 0 -40 -9t-21 -37.5t-6.5 -46.5t-0.5 -70v-37z" />
    <glyph glyph-name="Ydieresis" unicode="&#x178;" horiz-adv-x="627" 
d="M25 795h206l92 -291l91 291h200l-203 -485v-310h-188v310zM306 863h-115l53 159h172z" />
    <glyph glyph-name="florin" unicode="&#x192;" horiz-adv-x="414" 
d="M474 785l-22 -113q-26 3 -45.5 1t-33.5 -13t-22.5 -21t-15.5 -34t-10.5 -41t-10.5 -53q-1 -7 -2 -11l-7 -35h119l-21 -106h-119l-61 -311q-25 -125 -39 -155q-20 -45 -73 -66q-14 -6 -32 -11q-81 -22 -179 -3l22 114q76 -7 96 15.5t36 112.5q2 10 3 16l55 288h-116
l21 106h116l15 81l8 40t9 37t12.5 39.5t16 34t22 33.5t28.5 25t37 22q39 17 100.5 17t92.5 -9z" />
    <glyph glyph-name="circumflex" unicode="&#x2c6;" horiz-adv-x="596" 
d="M202 870h207l153 -205h-176l-83 109l-84 -109h-173z" />
    <glyph glyph-name="ring" unicode="&#x2da;" horiz-adv-x="350" 
d="M172 734q27 -3 48.5 13.5t24.5 43.5t-13.5 48.5t-43.5 24.5t-48.5 -13.5t-24.5 -43.5t13.5 -48.5t43.5 -24.5zM46 812q4 55 47 90.5t100 31.5q55 -4 91 -47.5t32 -99.5t-48 -91.5t-100 -30.5q-56 4 -91.5 47t-30.5 100z" />
    <glyph glyph-name="tilde" unicode="&#x2dc;" horiz-adv-x="594" 
d="M471 852h94q-8 -69 -28.5 -109t-66.5 -60q-20 -9 -41.5 -11t-51 4.5t-59 16t-78.5 27.5q-43 16 -71 -7q-18 -16 -26 -48h-97q17 127 98 172q28 16 61 16t55 -6.5t67 -22.5l23 -10q25 -10 37.5 -13.5t28.5 -3.5t29 8q21 13 26 47z" />
    <glyph glyph-name="pi" unicode="&#x3c0;" horiz-adv-x="1024" 
d="M197 785h90v-471h-128v330h-105v69q63 0 95.5 15t47.5 57zM666 807h107l-442 -843h-107zM882 245q38 -15 57 -33t25 -51q6 -30 -2 -68t-33 -63q-22 -22 -64 -33t-78 -9.5t-64 5.5q-76 13 -98 76q-9 26 -9 70h122q0 -61 31 -77q22 -10 40 2q22 12 25 55q2 59 -21 76
q-19 15 -76 11v70q23 -2 39 -1.5t27 7t18 21.5q6 15 7.5 35t-7.5 36q-12 24 -38 24q-22 0 -33.5 -20t-11.5 -48h-115q0 88 68 122q26 12 102.5 11.5t101.5 -14.5q53 -28 59 -94q2 -38 -14 -63.5t-58 -46.5z" />
    <glyph glyph-name="endash" unicode="&#x2013;" horiz-adv-x="665" 
d="M48 393h581v-140h-581v140z" />
    <glyph glyph-name="emdash" unicode="&#x2014;" horiz-adv-x="904" 
d="M48 389h822v-137h-822v137z" />
    <glyph glyph-name="quoteleft" unicode="&#x2018;" horiz-adv-x="251" 
d="M223 427h-173v102v43v40.5t0.5 34.5t2.5 32.5t5.5 26.5t8.5 26t12.5 20.5t18 19.5t24.5 15q38 18 98 29v-89q-44 -8 -57 -39q-5 -15 -5 -66h65v-195z" />
    <glyph glyph-name="quoteright" unicode="&#x2019;" horiz-adv-x="251" 
d="M50 791h173v-103v-43v-40.5t-0.5 -34t-2.5 -32.5t-5.5 -27t-8.5 -25.5t-12.5 -20t-18 -19.5t-24.5 -15q-36 -19 -98 -29v88q44 8 56 39q6 15 6 67h-65v195z" />
    <glyph glyph-name="quotedblleft" unicode="&#x201c;" horiz-adv-x="492" 
d="M223 427h-173v102q0 131 6 164q13 66 66 94q38 18 98 29v-89q-44 -8 -57 -39q-5 -15 -5 -66h65v-195zM461 427h-173v102q0 131 6 164q13 66 66 94q37 18 98 29v-89q-44 -8 -56 -39q-6 -15 -6 -66h65v-195z" />
    <glyph glyph-name="quotedblright" unicode="&#x201d;" horiz-adv-x="492" 
d="M50 791h173v-103v-43v-40.5t-0.5 -34t-2.5 -32.5t-5.5 -27t-8.5 -25.5t-12.5 -20t-18 -19.5t-24.5 -15q-36 -19 -98 -29v88q44 8 56 39q6 15 6 67h-65v195zM288 791h173v-103v-43v-40.5t-0.5 -34t-2.5 -32.5t-5.5 -27t-8.5 -25.5t-12.5 -20t-18 -19.5t-24.5 -15
q-37 -19 -98 -29v88q45 8 57 39q5 13 5 67h-65v195z" />
    <glyph glyph-name="quotedblbase" unicode="&#x201e;" horiz-adv-x="492" 
d="M50 194h173v-103v-43v-40.5t-0.5 -34t-2.5 -32.5t-5.5 -27t-8.5 -25.5t-12.5 -20t-18 -19.5t-24.5 -15q-36 -19 -98 -29v88q15 3 23 6t18 11t15 22q6 15 6 67h-65v195zM288 194h173v-103v-43v-40.5t-0.5 -34t-2.5 -32.5t-5.5 -27t-8.5 -25.5t-12.5 -20t-18 -19.5
t-24.5 -15q-37 -19 -98 -29v88q15 3 23 6t18.5 11t15.5 22q5 13 5 67h-65v195z" />
    <glyph glyph-name="dagger" unicode="&#x2020;" horiz-adv-x="629" 
d="M231 792h178v-216h187v-141h-187v-592h-178v592h-183v141h183v216z" />
    <glyph glyph-name="daggerdbl" unicode="&#x2021;" horiz-adv-x="629" 
d="M231 799h178v-216h187v-141h-187v-244h187v-141h-187v-207h-178v207h-183v141h183v244h-183v141h183v216z" />
    <glyph glyph-name="bullet" unicode="&#x2022;" horiz-adv-x="289" 
d="M48 337q0 42 30 72t73 30t73.5 -30t30.5 -72q0 -43 -30.5 -73t-73.5 -30t-73 30t-30 73z" />
    <glyph glyph-name="perthousand" unicode="&#x2030;" horiz-adv-x="1256" 
d="M569 801h112l-344 -818h-113zM179 506q6 -38 26 -48q17 -7 35 9q15 14 17.5 80.5t-4.5 113.5q-4 40 -29 43q-22 2 -33 -13q-13 -15 -16 -60.5t-0.5 -82.5t4.5 -42zM652 127q7 -38 27 -47q17 -7 34 9q15 14 18 80.5t-4 113.5q-4 40 -29 42q-21 4 -33 -12
q-12 -15 -15.5 -61.5t-1.5 -80.5t4 -44zM615 406q21 8 54 11.5t73 -4t63 -29.5q32 -31 45 -88t11 -100t-9 -81q-13 -61 -30 -83q-18 -22 -49 -32q-26 -8 -61 -11t-78.5 8t-67.5 39q-27 32 -37 87t-7.5 99.5t10.5 80.5q6 30 27.5 59.5t55.5 43.5zM140 783q21 8 54 11t73 -4.5
t63 -29.5q32 -31 45 -87.5t11 -99.5t-9 -81q-19 -92 -93 -115q-26 -9 -57.5 -12t-71.5 8t-64 40q-27 32 -37 87t-7.5 99t10.5 81q6 30 27.5 59.5t55.5 43.5zM1018 127q7 -38 26 -47q18 -7 35 9q15 14 18 80.5t-4 113.5q-7 40 -29 42q-21 4 -34 -12q-12 -15 -15 -61.5
t-1 -80.5t4 -44zM981 406q21 8 54 11.5t73 -4t62 -29.5q33 -31 46 -87.5t11 -100.5t-10 -81l-5.5 -27.5t-7.5 -25t-13 -27t-20.5 -20t-31.5 -15.5q-26 -8 -61 -11t-78.5 8t-67.5 39q-27 32 -37 87t-7.5 99.5t10.5 80.5q5 29 27 59t56 44z" />
    <glyph glyph-name="guilsinglleft" unicode="&#x2039;" horiz-adv-x="256" 
d="M220 381l-88 -69l87 -68v-165l-171 123v215l172 126v-162z" />
    <glyph glyph-name="guilsinglright" unicode="&#x203a;" horiz-adv-x="255" 
d="M48 543l172 -126v-215l-170 -123v165l87 68l-89 69v162z" />
    <glyph glyph-name="fraction" unicode="&#x2044;" horiz-adv-x="627" 
d="M25 795h206l92 -291l91 291h200l-203 -485v-310h-188v310zM145 1008h142v-145h-142v145zM343 1008h142v-145h-142v145z" />
    <glyph glyph-name="partialdiff" unicode="&#x2202;" horiz-adv-x="1024" 
d="M195 785h90v-471h-127v330h-105v69q63 0 95.5 15t46.5 57zM784 464h140v-291h48v-86h-48v-94h-122v94h-197v92zM709 173h93v154zM665 807h106l-441 -843h-107z" />
    <glyph glyph-name="product" unicode="&#x220f;" horiz-adv-x="1024" 
d="M69 777h305v-86h-208l-7 -89q80 55 161 20q60 -27 71 -97q6 -42 -4 -94t-41 -86q-21 -23 -58.5 -33.5t-73.5 -9t-64 10.5q-42 14 -65 30.5t-31 45.5q-8 30 -8 63h123q0 -59 30 -74q24 -8 42 6q30 23 22 112q-5 47 -30 58q-17 7 -38 -1q-25 -14 -25 -34h-117zM683 807h106
l-441 -843h-107zM903 245q73 -21 82 -95q9 -84 -50 -131q-21 -17 -68 -24t-90.5 -4.5t-65.5 10.5q-71 27 -82 97q-8 49 10 89t69 60q-67 34 -68 91q-2 64 43 100q27 22 95 27t100 -7q67 -16 87 -70q8 -19 6.5 -49.5t-14.5 -50.5q-22 -32 -54 -43zM762 348q-5 -44 19 -63
q20 -14 40 -5q22 10 28 45q4 43 -19 63q-20 15 -41 7q-22 -9 -27 -47zM760 94q9 -28 38 -36q26 -4 43 15q11 12 15 42.5t-1 46.5q-9 36 -34 44q-23 9 -43 -5q-19 -15 -22.5 -53t4.5 -54z" />
    <glyph glyph-name="summation" unicode="&#x2211;" horiz-adv-x="1024" 
d="M771 80h193v-80h-349q0 49 11.5 81t43.5 69q24 28 83 78.5t67 59.5q16 18 16.5 47.5t-8.5 39.5q-12 21 -39 21q-28 0 -42 -26q-7 -13 -7 -56h-122q0 50 14.5 83t58.5 56q30 19 110.5 15.5t116.5 -33.5q30 -24 39 -62t1 -74q-8 -35 -23 -54.5t-61 -57.5q-4 -4 -29.5 -25
t-28.5 -23q-14 -13 -25 -28t-15 -23zM195 785h90v-471h-127v330h-105v69q63 0 95.5 15t46.5 57zM665 807h106l-441 -843h-107z" />
    <glyph glyph-name="radical" unicode="&#x221a;" horiz-adv-x="1024" 
d="M684 807h107l-442 -843h-107zM900 245q38 -15 57 -33t25 -51q6 -30 -2 -68t-33 -63q-22 -22 -64 -33t-78 -9.5t-64 5.5q-76 13 -98 76q-9 26 -9 70h122q0 -61 31 -77q22 -10 40 2q22 12 25 55q2 59 -21 76q-19 15 -76 11v70q23 -2 39 -1.5t27 7t18 21.5q6 15 7.5 35
t-7.5 36q-12 24 -38 24q-22 0 -33.5 -20t-11.5 -48h-115q0 88 68 122q26 12 103 11.5t101 -14.5q53 -28 59 -94q2 -38 -14 -63.5t-58 -46.5zM206 393h193v-80h-349q0 49 11.5 81t43.5 69q24 28 83 78.5t67 59.5q16 18 16.5 47.5t-8.5 39.5q-12 21 -39 21q-28 0 -43 -26
q-6 -12 -6 -56h-122q0 50 14.5 83t58.5 56q30 19 110.5 15.5t116.5 -33.5q30 -24 39 -62t1 -74q-8 -34 -23 -53.5t-61 -58.5q-4 -4 -29.5 -25t-28.5 -23q-14 -13 -25 -28t-16 -23z" />
    <glyph glyph-name="infinity" unicode="&#x221e;" horiz-adv-x="550" 
d="M208 597l75 -407l67 407h182l-155 -591q-29 -105 -65.5 -150t-93.5 -51.5t-145 0.5v126q60 0 73.5 11.5t31.5 73.5l3 12l-159 569h186zM278 665h-115l53 159h172z" />
    <glyph glyph-name="integral" unicode="&#x222b;" horiz-adv-x="1024" 
d="M314 564q38 -14 57 -33t25 -52q6 -30 -2 -67.5t-33 -62.5q-22 -22 -63.5 -33t-78 -9.5t-64.5 5.5q-76 13 -98 76q-9 24 -9 69h122q0 -61 31 -76q20 -11 40 1q24 14 25 56q2 58 -21 76q-22 14 -76 11v69q40 -3 57 1.5t27 26.5q6 14 7.5 34.5t-7.5 36.5q-11 23 -38 23
q-22 0 -33.5 -19.5t-11.5 -48.5h-115q0 89 68 122q26 13 103 12.5t101 -15.5q53 -27 59 -94q2 -37 -14 -62.5t-58 -46.5zM777 464h140v-291h48v-86h-48v-94h-122v94h-197v92zM702 173h93v154zM668 807h106l-442 -843h-106z" />
    <glyph glyph-name="approxequal" unicode="&#x2248;" horiz-adv-x="1024" 
d="M186 785h90v-471h-128v330h-105v69q63 0 95.5 15t47.5 57zM655 807h107l-442 -843h-107zM900 245q73 -21 82 -95q9 -85 -50 -131q-21 -17 -68 -24t-90.5 -4.5t-65.5 10.5q-71 27 -82 97q-8 49 10 89t69 60q-65 33 -68 91q-2 64 43 100q27 22 95 27t100 -7q67 -16 88 -70
q8 -19 6 -49.5t-15 -50.5q-22 -32 -54 -43zM759 348q-4 -43 19 -63q20 -14 41 -5q21 10 27 45q4 45 -19 63q-20 16 -40 7q-23 -9 -28 -47zM758 94q9 -29 37 -36q26 -4 43 15q12 12 15.5 43t-1.5 46q-9 36 -33 44q-25 9 -43 -5q-19 -15 -22.5 -53t4.5 -54z" />
    <glyph glyph-name="notequal" unicode="&#x2260;" horiz-adv-x="1154" 
d="M402 972l16 -209h276l10 -115h-276l6 -54h371l162 -367l123 51l42 -95l-222 -92l-175 397h-408l-43 520q0 1 -1.5 18.5t-2 22.5t-1 22.5t1 25t4 23t6.5 24.5t11.5 20t16.5 20q41 40 108 25q63 -13 84 -84q16 -55 -23 -107q-29 -32 -86 -46zM280 748l11 -132
q-132 -94 -115 -275q6 -62 46.5 -123.5t109.5 -94.5q57 -29 130.5 -26t135.5 40q113 67 142 244l79 -179q-9 -18 -21 -37q-62 -98 -153 -144t-187 -47q-91 -3 -184 40.5t-160 142.5q-54 80 -64 192.5t26 189.5q63 137 204 209z" />
    <glyph glyph-name="lozenge" unicode="&#x25ca;" horiz-adv-x="1024" 
d="M312 564q38 -14 56.5 -32.5t24.5 -52.5q6 -30 -1.5 -67.5t-32.5 -62.5q-23 -22 -64.5 -33t-78 -9.5t-64.5 5.5q-76 13 -98 76q-8 22 -8 69h122q0 -30 5.5 -48.5t24.5 -27.5q20 -11 40 1q24 14 25 56q4 58 -21 76q-22 14 -76 11v69q40 -3 57 1.5t28 26.5q6 13 7 34.5
t-7 36.5q-12 23 -39 23q-22 0 -33 -19.5t-11 -48.5h-115q0 90 67 122q26 13 103 12.5t101 -15.5q54 -28 60 -94q2 -37 -14.5 -62.5t-57.5 -46.5zM680 807h107l-442 -843h-107zM900 245q73 -21 82 -95q9 -85 -50 -131q-21 -17 -68 -24t-90.5 -4.5t-65.5 10.5q-71 27 -82 97
q-8 49 10 89t69 60q-65 33 -68 91q-2 64 43 100q27 22 95 27t100 -7q67 -16 88 -70q8 -19 6 -49.5t-15 -50.5q-22 -32 -54 -43zM759 348q-4 -43 19 -63q20 -14 41 -5q21 10 27 45q4 45 -19 63q-20 16 -40 7q-23 -9 -28 -47zM758 94q9 -29 37 -36q26 -4 43 15q12 12 15.5 43
t-1.5 46q-9 36 -33 44q-25 9 -43 -5q-19 -15 -22.5 -53t4.5 -54z" />
    <glyph glyph-name="fi" unicode="&#xfb01;" horiz-adv-x="605" 
d="M343 802v-119q-61 0 -72 -11t-11 -75h83v-122h-83v-475h-177v475h-77v122h77v18v22.5t0.5 22.5t2.5 25.5t5 24t8 25t11.5 21t16 19.5t21.5 14q9 5 25 8t41.5 4t41.5 1.5t48.5 0t38.5 -0.5zM566 802v-141h-175v141h175zM392 597h177v-597h-177v597z" />
    <glyph glyph-name="fl" unicode="&#xfb02;" horiz-adv-x="605" 
d="M343 802v-119q-61 0 -72 -11t-11 -75h83v-122h-83v-475h-177v475h-77v122h77v18v22.5t0.5 22.5t2.5 25.5t5 24t8 25t11.5 21t16 19.5t21.5 14q9 5 25 8t41.5 4t41.5 1.5t48.5 0t38.5 -0.5zM393 792h178v-792h-178v792z" />
    </font>
</defs>
</svg>
